# Blender 4.5.1 LTS
# www.blender.org
o Arrow45
v 0.000000 -0.500000 0.000000
v 0.995893 -0.500000 0.078378
v 0.000000 0.500000 0.000000
v 0.995893 0.500000 0.078378
v 1.967263 -0.500000 0.311584
v 1.967263 0.500000 0.311584
v 2.890193 -0.500000 0.693874
v 2.890193 0.500000 0.693874
v 3.741957 -0.500000 1.215835
v 3.741957 0.500000 1.215835
v 4.134515 -0.500000 1.525303
v 4.134515 0.500000 1.525303
v 3.741957 1.000000 1.215835
v 3.741957 -1.000000 1.215835
v 4.501581 0.000000 1.864616
v 3.326329 -0.500000 0.938122
v 3.326329 0.500000 0.938122
v 2.436239 -0.500000 0.484598
v 2.436239 0.500000 0.484598
v 1.486159 -0.500000 0.175899
v 1.486159 0.500000 0.175899
v 0.499486 -0.500000 0.019625
v 0.499486 0.500000 0.019625
vn -0.0393 -0.0000 0.9992
vn -0.1564 -0.0000 0.9877
vn -0.3090 -0.0000 0.9511
vn -0.4540 -0.0000 0.8910
vn -0.5983 -0.0000 0.8013
vn -0.6344 -0.0000 0.7730
vn -0.6191 -0.0000 0.7853
vn -0.6788 -0.0000 0.7343
vn -0.5225 -0.0000 0.8526
vn -0.3827 -0.0000 0.9239
vn -0.2334 -0.0000 0.9724
vn -0.0785 -0.0000 0.9969
vt 0.500000 0.000000
vt 1.000000 0.000000
vt 1.000000 1.000000
vt 0.500000 1.000000
vt 0.000000 0.000000
vt 0.000000 1.000000
s 1
f 22/1/12 2/2/2 4/3/2 23/4/12
f 21/3/11 20/2/11 5/2/3 6/3/3
f 19/3/10 18/2/10 7/2/4 8/3/4
f 17/3/9 16/2/9 9/2/5 10/3/5
f 10/3/5 9/2/5 11/2/6 12/3/6
f 10/3/5 12/3/6 13/3/7
f 11/2/6 9/2/5 14/2/7
f 12/3/6 11/2/6 15/3/8
f 8/3/4 7/2/4 16/2/9 17/3/9
f 6/3/3 5/2/3 18/2/10 19/3/10
f 4/3/2 2/2/2 20/2/11 21/3/11
f 1/5/1 22/1/12 23/4/12 3/6/1
