# Blender 4.5.1 LTS
# www.blender.org
o Arrow
v 0.000000 -0.500000 0.000000
v 1.000000 -0.500000 0.000000
v 0.000000 0.500000 0.000000
v 1.000000 0.500000 0.000000
v 2.000000 -0.500000 0.000000
v 2.000000 0.500000 0.000000
v 3.000000 -0.500000 0.000000
v 3.000000 0.500000 0.000000
v 4.000000 -0.500000 0.000000
v 4.000000 0.500000 0.000000
v 4.500000 -0.500000 0.000000
v 4.500000 0.500000 0.000000
v 4.000000 1.000000 0.000000
v 4.000000 -1.000000 0.000000
v 5.000000 0.000000 0.000000
v 3.500000 -0.500000 0.000000
v 3.500000 0.500000 0.000000
v 2.500000 -0.500000 0.000000
v 2.500000 0.500000 0.000000
v 1.500000 -0.500000 0.000000
v 1.500000 0.500000 0.000000
v 0.500000 -0.500000 0.000000
v 0.500000 0.500000 0.000000
vn -0.0000 -0.0000 1.0000
vt 0.500000 0.000000
vt 1.000000 0.000000
vt 1.000000 1.000000
vt 0.500000 1.000000
vt 0.000000 0.000000
vt 0.000000 1.000000
s 1
f 22/1/1 2/2/1 4/3/1 23/4/1
f 21/3/1 20/2/1 5/2/1 6/3/1
f 19/3/1 18/2/1 7/2/1 8/3/1
f 17/3/1 16/2/1 9/2/1 10/3/1
f 10/3/1 9/2/1 11/2/1 12/3/1
f 10/3/1 12/3/1 13/3/1
f 11/2/1 9/2/1 14/2/1
f 12/3/1 11/2/1 15/3/1
f 8/3/1 7/2/1 16/2/1 17/3/1
f 6/3/1 5/2/1 18/2/1 19/3/1
f 4/3/1 2/2/1 20/2/1 21/3/1
f 1/5/1 22/1/1 23/4/1 3/6/1
