# Blender 4.5.1 LTS
# www.blender.org
o Arrow90
v 0.000000 -0.500000 0.000000
v 0.983632 -0.500000 0.155792
v 0.000000 0.500000 0.000000
v 0.983632 0.500000 0.155792
v 1.870978 -0.500000 0.607918
v 1.870978 0.500000 0.607918
v 2.575181 -0.500000 1.312120
v 2.575181 0.500000 1.312120
v 3.027307 -0.500000 2.199467
v 3.027307 0.500000 2.199467
v 3.143910 -0.500000 2.685153
v 3.143910 0.500000 2.685153
v 3.027307 1.000000 2.199467
v 3.027307 -1.000000 2.199467
v 3.183099 0.000000 3.183099
v 2.836162 -0.500000 1.738002
v 2.836162 0.500000 1.738002
v 2.250791 -0.500000 0.932308
v 2.250791 0.500000 0.932308
v 1.445097 -0.500000 0.346937
v 1.445097 0.500000 0.346937
v 0.497947 -0.500000 0.039189
v 0.497947 0.500000 0.039189
vn -0.0785 -0.0000 0.9969
vn -0.3090 -0.0000 0.9511
vn -0.5878 -0.0000 0.8090
vn -0.8090 -0.0000 0.5878
vn -0.9588 -0.0000 0.2840
vn -0.9808 -0.0000 0.1952
vn -0.9724 -0.0000 0.2334
vn -0.9969 -0.0000 0.0785
vn -0.8910 -0.0000 0.4540
vn -0.7071 -0.0000 0.7071
vn -0.4540 -0.0000 0.8910
vn -0.1564 -0.0000 0.9877
vt 0.500000 0.000000
vt 1.000000 0.000000
vt 1.000000 1.000000
vt 0.500000 1.000000
vt 0.000000 0.000000
vt 0.000000 1.000000
s 1
f 22/1/12 2/2/2 4/3/2 23/4/12
f 21/3/11 20/2/11 5/2/3 6/3/3
f 19/3/10 18/2/10 7/2/4 8/3/4
f 17/3/9 16/2/9 9/2/5 10/3/5
f 10/3/5 9/2/5 11/2/6 12/3/6
f 10/3/5 12/3/6 13/3/7
f 11/2/6 9/2/5 14/2/7
f 12/3/6 11/2/6 15/3/8
f 8/3/4 7/2/4 16/2/9 17/3/9
f 6/3/3 5/2/3 18/2/10 19/3/10
f 4/3/2 2/2/2 20/2/11 21/3/11
f 1/5/1 22/1/12 23/4/12 3/6/1
