# Blender 3.3.0
# www.blender.org
o Plane
v -10.000000 1.096551 0.920115
v -1.000000 0.013113 0.149880
v -10.000000 -1.096551 -0.920115
v -1.000000 -0.013113 -0.149880
v -7.215829 0.639955 0.878269
v -4.367945 0.255428 0.637334
v -3.371217 0.152028 0.501764
v -1.870779 0.041067 0.249312
v -1.870779 -0.041067 -0.249312
v -3.371217 -0.152028 -0.501764
v -4.367945 -0.255428 -0.637334
v -7.215829 -0.639955 -0.878269
v -9.897401 1.096551 -1.699428
v -1.004718 0.013113 -0.114046
v -9.421115 -1.096551 -3.476954
v -0.927134 -0.013113 -0.403592
v -7.197268 0.639955 -1.019251
v -4.384065 0.255428 -0.514890
v -3.386212 0.152028 -0.387869
v -1.871560 0.041067 -0.243376
v -1.742507 -0.041067 -0.725010
v -3.126480 -0.152028 -1.357202
v -4.054157 -0.255428 -1.746124
v -6.742643 -0.639955 -2.715936
v -9.120311 1.096551 -4.203157
v -0.940966 0.013113 -0.370200
v -8.200196 -1.096551 -5.796843
v -0.791085 -0.013113 -0.629800
v -6.688226 0.639955 -2.847311
v -4.101418 0.255428 -1.632026
v -3.170442 0.152028 -1.251068
v -1.744798 0.041067 -0.719479
v -1.495486 -0.041067 -1.151300
v -2.668678 -0.152028 -2.120149
v -3.464085 -0.255428 -2.735919
v -5.809957 -0.639955 -4.368517
v -7.721686 1.096551 -6.420448
v -0.813088 0.013113 -0.601125
v -6.420447 -1.096551 -7.721687
v -0.601125 -0.013113 -0.813088
v -5.723391 0.639955 -4.481332
v -3.539266 0.255428 -2.637941
v -2.738611 0.152028 -2.029010
v -1.499130 0.041067 -1.146550
v -1.146550 -0.041067 -1.499130
v -2.029010 -0.152028 -2.738611
v -2.637940 -0.255428 -3.539266
v -4.481331 -0.639955 -5.723392
v -5.796842 1.096551 -8.200196
v -0.629800 0.013113 -0.791085
v -4.203156 -1.096551 -9.120311
v -0.370200 -0.013113 -0.940966
v -4.368517 0.639955 -5.809957
v -2.735919 0.255428 -3.464084
v -2.120148 0.152028 -2.668678
v -1.151299 0.041067 -1.495486
v -0.719479 -0.041067 -1.744797
v -1.251068 -0.152028 -3.170441
v -1.632025 -0.255428 -4.101418
v -2.847311 -0.639955 -6.688225
v -3.476953 1.096551 -9.421114
v -0.403592 0.013113 -0.927134
v -1.699427 -1.096551 -9.897400
v -0.114046 -0.013113 -1.004718
v -2.715936 0.639955 -6.742642
v -1.746124 0.255428 -4.054156
v -1.357202 0.152028 -3.126479
v -0.725010 0.041067 -1.742507
v -0.243376 -0.041067 -1.871560
v -0.387868 -0.152028 -3.386211
v -0.514890 -0.255428 -4.384065
v -1.019251 -0.639955 -7.197267
v -0.920115 1.096551 -9.999998
v -0.149880 0.013113 -1.000000
v 0.920115 -1.096551 -9.999998
v 0.149880 -0.013113 -1.000000
v -0.878268 0.639955 -7.215827
v -0.637333 0.255428 -4.367944
v -0.501764 0.152028 -3.371217
v -0.249312 0.041067 -1.870778
v 0.249312 -0.041067 -1.870778
v 0.501764 -0.152028 -3.371217
v 0.637334 -0.255428 -4.367944
v 0.878269 -0.639955 -7.215827
v 1.699427 1.096551 -9.897399
v 0.114046 0.013113 -1.004717
v 3.476953 -1.096551 -9.421113
v 0.403592 -0.013113 -0.927134
v 1.019251 0.639955 -7.197267
v 0.514890 0.255428 -4.384064
v 0.387869 0.152028 -3.386211
v 0.243376 0.041067 -1.871560
v 0.725010 -0.041067 -1.742506
v 1.357202 -0.152028 -3.126479
v 1.746124 -0.255428 -4.054156
v 2.715936 -0.639955 -6.742641
v 4.203156 1.096551 -9.120309
v 0.370200 0.013113 -0.940965
v 5.796843 -1.096551 -8.200194
v 0.629800 -0.013113 -0.791085
v 2.847311 0.639955 -6.688224
v 1.632025 0.255428 -4.101418
v 1.251068 0.152028 -3.170441
v 0.719479 0.041067 -1.744797
v 1.151299 -0.041067 -1.495486
v 2.120148 -0.152028 -2.668677
v 2.735919 -0.255428 -3.464084
v 4.368517 -0.639955 -5.809956
v 6.420447 1.096551 -7.721685
v 0.601125 0.013113 -0.813088
v 7.721686 -1.096551 -6.420446
v 0.813088 -0.013113 -0.601125
v 4.481331 0.639955 -5.723390
v 2.637940 0.255428 -3.539266
v 2.029010 0.152028 -2.738611
v 1.146550 0.041067 -1.499130
v 1.499130 -0.041067 -1.146550
v 2.738611 -0.152028 -2.029010
v 3.539266 -0.255428 -2.637940
v 5.723391 -0.639955 -4.481330
v 8.200194 1.096551 -5.796841
v 0.791085 0.013113 -0.629800
v 9.120309 -1.096551 -4.203155
v 0.940965 -0.013113 -0.370200
v 5.809956 0.639955 -4.368516
v 3.464084 0.255428 -2.735919
v 2.668677 0.152028 -2.120148
v 1.495486 0.041067 -1.151299
v 1.744797 -0.041067 -0.719479
v 3.170441 -0.152028 -1.251068
v 4.101417 -0.255428 -1.632025
v 6.688224 -0.639955 -2.847310
v 9.421113 1.096551 -3.476952
v 0.927134 0.013113 -0.403592
v 9.897399 -1.096551 -1.699426
v 1.004717 -0.013113 -0.114046
v 6.742641 0.639955 -2.715935
v 4.054156 0.255428 -1.746124
v 3.126479 0.152028 -1.357201
v 1.742506 0.041067 -0.725010
v 1.871559 -0.041067 -0.243376
v 3.386211 -0.152028 -0.387868
v 4.384064 -0.255428 -0.514890
v 7.197266 -0.639955 -1.019251
v 9.999997 1.096551 -0.920114
v 1.000000 0.013113 -0.149880
v 9.999997 -1.096551 0.920115
v 1.000000 -0.013113 0.149880
v 7.215827 0.639955 -0.878268
v 4.367944 0.255428 -0.637333
v 3.371216 0.152028 -0.501763
v 1.870778 0.041067 -0.249312
v 1.870778 -0.041067 0.249312
v 3.371216 -0.152028 0.501764
v 4.367944 -0.255428 0.637334
v 7.215827 -0.639955 0.878269
v 9.897398 1.096551 1.699427
v 1.004717 0.013113 0.114046
v 9.421112 -1.096551 3.476953
v 0.927134 -0.013113 0.403592
v 7.197266 0.639955 1.019251
v 4.384064 0.255428 0.514891
v 3.386211 0.152028 0.387869
v 1.871559 0.041067 0.243376
v 1.742506 -0.041067 0.725010
v 3.126479 -0.152028 1.357202
v 4.054155 -0.255428 1.746124
v 6.742640 -0.639955 2.715936
v 9.120308 1.096551 4.203156
v 0.940965 0.013113 0.370200
v 8.200193 -1.096551 5.796842
v 0.791085 -0.013113 0.629800
v 6.688223 0.639955 2.847311
v 4.101417 0.255428 1.632025
v 3.170441 0.152028 1.251068
v 1.744797 0.041067 0.719479
v 1.495485 -0.041067 1.151299
v 2.668677 -0.152028 2.120148
v 3.464083 -0.255428 2.735919
v 5.809955 -0.639955 4.368516
v 7.721684 1.096551 6.420446
v 0.813088 0.013113 0.601125
v 6.420445 -1.096551 7.721685
v 0.601125 -0.013113 0.813088
v 5.723389 0.639955 4.481331
v 3.539265 0.255428 2.637940
v 2.738610 0.152028 2.029010
v 1.499130 0.041067 1.146550
v 1.146550 -0.041067 1.499130
v 2.029009 -0.152028 2.738611
v 2.637939 -0.255428 3.539265
v 4.481329 -0.639955 5.723390
v 5.796840 1.096551 8.200193
v 0.629800 0.013113 0.791085
v 4.203155 -1.096551 9.120308
v 0.370200 -0.013113 0.940965
v 4.368515 0.639955 5.809955
v 2.735918 0.255428 3.464084
v 2.120148 0.152028 2.668677
v 1.151299 0.041067 1.495485
v 0.719478 -0.041067 1.744797
v 1.251068 -0.152028 3.170440
v 1.632025 -0.255428 4.101417
v 2.847310 -0.639955 6.688223
v 3.476951 1.096551 9.421111
v 0.403592 0.013113 0.927134
v 1.699426 -1.096551 9.897397
v 0.114046 -0.013113 1.004717
v 2.715934 0.639955 6.742640
v 1.746123 0.255428 4.054155
v 1.357201 0.152028 3.126478
v 0.725009 0.041067 1.742506
v 0.243376 -0.041067 1.871559
v 0.387868 -0.152028 3.386210
v 0.514890 -0.255428 4.384063
v 1.019250 -0.639955 7.197265
v 0.920113 1.096551 9.999994
v 0.149880 0.013113 0.999999
v -0.920116 -1.096551 9.999994
v -0.149880 -0.013113 0.999999
v 0.878268 0.639955 7.215825
v 0.637333 0.255428 4.367943
v 0.501763 0.152028 3.371215
v 0.249311 0.041067 1.870778
v -0.249312 -0.041067 1.870778
v -0.501764 -0.152028 3.371215
v -0.637334 -0.255428 4.367943
v -0.878269 -0.639955 7.215825
v -1.699428 1.096551 9.897395
v -0.114046 0.013113 1.004717
v -3.476953 -1.096551 9.421109
v -0.403592 -0.013113 0.927133
v -1.019252 0.639955 7.197264
v -0.514891 0.255428 4.384063
v -0.387869 0.152028 3.386210
v -0.243377 0.041067 1.871559
v -0.725010 -0.041067 1.742506
v -1.357201 -0.152028 3.126478
v -1.746124 -0.255428 4.054154
v -2.715936 -0.639955 6.742639
v -4.203156 1.096551 9.120306
v -0.370200 0.013113 0.940965
v -5.796841 -1.096551 8.200191
v -0.629800 -0.013113 0.791085
v -2.847311 0.639955 6.688221
v -1.632025 0.255428 4.101416
v -1.251068 0.152028 3.170440
v -0.719479 0.041067 1.744797
v -1.151299 -0.041067 1.495485
v -2.120148 -0.152028 2.668676
v -2.735919 -0.255428 3.464082
v -4.368516 -0.639955 5.809953
v -6.420446 1.096551 7.721683
v -0.601125 0.013113 0.813088
v -7.721684 -1.096551 6.420444
v -0.813088 -0.013113 0.601125
v -4.481330 0.639955 5.723387
v -2.637940 0.255428 3.539264
v -2.029009 0.152028 2.738609
v -1.146550 0.041067 1.499129
v -1.499130 -0.041067 1.146549
v -2.738610 -0.152028 2.029008
v -3.539265 -0.255428 2.637939
v -5.723389 -0.639955 4.481328
v -8.200192 1.096551 5.796839
v -0.791085 0.013113 0.629800
v -9.120307 -1.096551 4.203154
v -0.940965 -0.013113 0.370200
v -5.809954 0.639955 4.368515
v -3.464083 0.255428 2.735918
v -2.668677 0.152028 2.120147
v -1.495485 0.041067 1.151299
v -1.744797 -0.041067 0.719478
v -3.170440 -0.152028 1.251067
v -4.101416 -0.255428 1.632024
v -6.688222 -0.639955 2.847309
v -9.421110 1.096551 3.476951
v -0.927134 0.013113 0.403592
v -9.897396 -1.096551 1.699426
v -1.004717 -0.013113 0.114046
v -6.742640 0.639955 2.715934
v -4.054155 0.255428 1.746123
v -3.126478 0.152028 1.357201
v -1.742506 0.041067 0.725009
v -1.871559 -0.041067 0.243376
v -3.386210 -0.152028 0.387868
v -4.384063 -0.255428 0.514890
v -7.197265 -0.639955 1.019250
vn -0.0000 0.7194 -0.6946
vn -0.0000 0.7898 -0.6134
vn -0.0000 0.9015 -0.4327
vn -0.0000 0.9546 -0.2980
vn -0.0000 0.9803 -0.1973
vn -0.0000 0.9909 -0.1345
vn 0.1798 0.7194 -0.6710
vn 0.1588 0.7898 -0.5925
vn 0.1120 0.9015 -0.4180
vn 0.0771 0.9546 -0.2878
vn 0.0511 0.9803 -0.1906
vn 0.0348 0.9909 -0.1299
vn 0.3473 0.7194 -0.6016
vn 0.3067 0.7898 -0.5312
vn 0.2164 0.9015 -0.3747
vn 0.1490 0.9546 -0.2581
vn 0.0987 0.9803 -0.1709
vn 0.0672 0.9909 -0.1165
vn 0.4912 0.7194 -0.4912
vn 0.4338 0.7898 -0.4338
vn 0.3060 0.9015 -0.3060
vn 0.2107 0.9546 -0.2107
vn 0.1395 0.9803 -0.1395
vn 0.0951 0.9909 -0.0951
vn 0.6016 0.7194 -0.3473
vn 0.5312 0.7898 -0.3067
vn 0.3747 0.9015 -0.2164
vn 0.2581 0.9546 -0.1490
vn 0.1709 0.9803 -0.0987
vn 0.1165 0.9909 -0.0672
vn 0.6710 0.7194 -0.1798
vn 0.5925 0.7898 -0.1588
vn 0.4180 0.9015 -0.1120
vn 0.2878 0.9546 -0.0771
vn 0.1906 0.9803 -0.0511
vn 0.1299 0.9909 -0.0348
vn 0.6946 0.7194 -0.0000
vn 0.6134 0.7898 -0.0000
vn 0.4327 0.9015 -0.0000
vn 0.2980 0.9546 -0.0000
vn 0.1973 0.9803 -0.0000
vn 0.1345 0.9909 -0.0000
vn 0.6710 0.7194 0.1798
vn 0.5925 0.7898 0.1588
vn 0.4180 0.9015 0.1120
vn 0.2878 0.9546 0.0771
vn 0.1906 0.9803 0.0511
vn 0.1299 0.9909 0.0348
vn 0.6016 0.7194 0.3473
vn 0.5312 0.7898 0.3067
vn 0.3747 0.9015 0.2164
vn 0.2581 0.9546 0.1490
vn 0.1709 0.9803 0.0987
vn 0.1165 0.9909 0.0672
vn 0.4912 0.7194 0.4912
vn 0.4338 0.7898 0.4338
vn 0.3060 0.9015 0.3060
vn 0.2107 0.9546 0.2107
vn 0.1395 0.9803 0.1395
vn 0.0951 0.9909 0.0951
vn 0.3473 0.7194 0.6016
vn 0.3067 0.7898 0.5312
vn 0.2164 0.9015 0.3747
vn 0.1490 0.9546 0.2581
vn 0.0987 0.9803 0.1709
vn 0.0672 0.9909 0.1165
vn 0.1798 0.7194 0.6710
vn 0.1588 0.7898 0.5925
vn 0.1120 0.9015 0.4180
vn 0.0771 0.9546 0.2878
vn 0.0511 0.9803 0.1906
vn 0.0348 0.9909 0.1299
vn -0.0000 0.7194 0.6946
vn -0.0000 0.7898 0.6134
vn -0.0000 0.9015 0.4327
vn -0.0000 0.9546 0.2980
vn -0.0000 0.9803 0.1973
vn -0.0000 0.9909 0.1345
vn -0.1798 0.7194 0.6710
vn -0.1588 0.7898 0.5925
vn -0.1120 0.9015 0.4180
vn -0.0771 0.9546 0.2878
vn -0.0511 0.9803 0.1906
vn -0.0348 0.9909 0.1299
vn -0.3473 0.7194 0.6016
vn -0.3067 0.7898 0.5312
vn -0.2164 0.9015 0.3747
vn -0.1490 0.9546 0.2581
vn -0.0987 0.9803 0.1709
vn -0.0672 0.9909 0.1165
vn -0.4912 0.7194 0.4912
vn -0.4338 0.7898 0.4338
vn -0.3060 0.9015 0.3060
vn -0.2107 0.9546 0.2107
vn -0.1395 0.9803 0.1395
vn -0.0951 0.9909 0.0951
vn -0.6016 0.7194 0.3473
vn -0.5312 0.7898 0.3067
vn -0.3747 0.9015 0.2164
vn -0.2581 0.9546 0.1490
vn -0.1709 0.9803 0.0987
vn -0.1165 0.9909 0.0672
vn -0.6710 0.7194 0.1798
vn -0.5925 0.7898 0.1588
vn -0.4180 0.9015 0.1120
vn -0.2878 0.9546 0.0771
vn -0.1906 0.9803 0.0511
vn -0.1299 0.9909 0.0348
vn -0.6946 0.7194 -0.0000
vn -0.6134 0.7898 -0.0000
vn -0.4327 0.9015 -0.0000
vn -0.2980 0.9546 -0.0000
vn -0.1973 0.9803 -0.0000
vn -0.1345 0.9909 -0.0000
vn -0.6710 0.7194 -0.1798
vn -0.5925 0.7898 -0.1588
vn -0.4180 0.9015 -0.1120
vn -0.2878 0.9546 -0.0771
vn -0.1906 0.9803 -0.0511
vn -0.1299 0.9909 -0.0348
vn -0.6016 0.7194 -0.3473
vn -0.5312 0.7898 -0.3067
vn -0.3747 0.9015 -0.2164
vn -0.2581 0.9546 -0.1490
vn -0.1709 0.9803 -0.0987
vn -0.1165 0.9909 -0.0672
vn -0.4912 0.7194 -0.4912
vn -0.4338 0.7898 -0.4338
vn -0.3060 0.9015 -0.3060
vn -0.2107 0.9546 -0.2107
vn -0.1395 0.9803 -0.1395
vn -0.0951 0.9909 -0.0951
vn -0.3473 0.7194 -0.6016
vn -0.3067 0.7898 -0.5312
vn -0.2164 0.9015 -0.3747
vn -0.1490 0.9546 -0.2581
vn -0.0987 0.9803 -0.1709
vn -0.0672 0.9909 -0.1165
vn -0.1798 0.7194 -0.6710
vn -0.1588 0.7898 -0.5925
vn -0.1120 0.9015 -0.4180
vn -0.0771 0.9546 -0.2878
vn -0.0511 0.9803 -0.1906
vn -0.0348 0.9909 -0.1299
vt 0.000000 0.000000
vt 1.000000 0.000000
vt 0.000000 1.000000
vt 1.000000 1.000000
vt 0.066010 0.000000
vt 0.214942 0.000000
vt 0.402234 0.000000
vt 0.636269 0.000000
vt 0.636269 1.000000
vt 0.402234 1.000000
vt 0.214941 1.000000
vt 0.066010 1.000000
vt 0.000000 0.000000
vt 1.000000 0.000000
vt 0.000000 1.000000
vt 1.000000 1.000000
vt 0.066010 0.000000
vt 0.214942 0.000000
vt 0.402234 0.000000
vt 0.636269 0.000000
vt 0.636269 1.000000
vt 0.402234 1.000000
vt 0.214941 1.000000
vt 0.066010 1.000000
vt 0.000000 0.000000
vt 1.000000 0.000000
vt 0.000000 1.000000
vt 1.000000 1.000000
vt 0.066010 0.000000
vt 0.214942 0.000000
vt 0.402234 0.000000
vt 0.636269 0.000000
vt 0.636269 1.000000
vt 0.402234 1.000000
vt 0.214941 1.000000
vt 0.066010 1.000000
vt 0.000000 0.000000
vt 1.000000 0.000000
vt 0.000000 1.000000
vt 1.000000 1.000000
vt 0.066010 0.000000
vt 0.214942 0.000000
vt 0.402234 0.000000
vt 0.636269 0.000000
vt 0.636269 1.000000
vt 0.402234 1.000000
vt 0.214941 1.000000
vt 0.066010 1.000000
vt 0.000000 0.000000
vt 1.000000 0.000000
vt 0.000000 1.000000
vt 1.000000 1.000000
vt 0.066010 0.000000
vt 0.214942 0.000000
vt 0.402234 0.000000
vt 0.636269 0.000000
vt 0.636269 1.000000
vt 0.402234 1.000000
vt 0.214941 1.000000
vt 0.066010 1.000000
vt 0.000000 0.000000
vt 1.000000 0.000000
vt 0.000000 1.000000
vt 1.000000 1.000000
vt 0.066010 0.000000
vt 0.214942 0.000000
vt 0.402234 0.000000
vt 0.636269 0.000000
vt 0.636269 1.000000
vt 0.402234 1.000000
vt 0.214941 1.000000
vt 0.066010 1.000000
vt 0.000000 0.000000
vt 1.000000 0.000000
vt 0.000000 1.000000
vt 1.000000 1.000000
vt 0.066010 0.000000
vt 0.214942 0.000000
vt 0.402234 0.000000
vt 0.636269 0.000000
vt 0.636269 1.000000
vt 0.402234 1.000000
vt 0.214941 1.000000
vt 0.066010 1.000000
vt 0.000000 0.000000
vt 1.000000 0.000000
vt 0.000000 1.000000
vt 1.000000 1.000000
vt 0.066010 0.000000
vt 0.214942 0.000000
vt 0.402234 0.000000
vt 0.636269 0.000000
vt 0.636269 1.000000
vt 0.402234 1.000000
vt 0.214941 1.000000
vt 0.066010 1.000000
vt 0.000000 0.000000
vt 1.000000 0.000000
vt 0.000000 1.000000
vt 1.000000 1.000000
vt 0.066010 0.000000
vt 0.214942 0.000000
vt 0.402234 0.000000
vt 0.636269 0.000000
vt 0.636269 1.000000
vt 0.402234 1.000000
vt 0.214941 1.000000
vt 0.066010 1.000000
vt 0.000000 0.000000
vt 1.000000 0.000000
vt 0.000000 1.000000
vt 1.000000 1.000000
vt 0.066010 0.000000
vt 0.214942 0.000000
vt 0.402234 0.000000
vt 0.636269 0.000000
vt 0.636269 1.000000
vt 0.402234 1.000000
vt 0.214941 1.000000
vt 0.066010 1.000000
vt 0.000000 0.000000
vt 1.000000 0.000000
vt 0.000000 1.000000
vt 1.000000 1.000000
vt 0.066010 0.000000
vt 0.214942 0.000000
vt 0.402234 0.000000
vt 0.636269 0.000000
vt 0.636269 1.000000
vt 0.402234 1.000000
vt 0.214941 1.000000
vt 0.066010 1.000000
vt 0.000000 0.000000
vt 1.000000 0.000000
vt 0.000000 1.000000
vt 1.000000 1.000000
vt 0.066010 0.000000
vt 0.214942 0.000000
vt 0.402234 0.000000
vt 0.636269 0.000000
vt 0.636269 1.000000
vt 0.402234 1.000000
vt 0.214941 1.000000
vt 0.066010 1.000000
vt 0.000000 0.000000
vt 1.000000 0.000000
vt 0.000000 1.000000
vt 1.000000 1.000000
vt 0.066010 0.000000
vt 0.214942 0.000000
vt 0.402234 0.000000
vt 0.636269 0.000000
vt 0.636269 1.000000
vt 0.402234 1.000000
vt 0.214941 1.000000
vt 0.066010 1.000000
vt 0.000000 0.000000
vt 1.000000 0.000000
vt 0.000000 1.000000
vt 1.000000 1.000000
vt 0.066010 0.000000
vt 0.214942 0.000000
vt 0.402234 0.000000
vt 0.636269 0.000000
vt 0.636269 1.000000
vt 0.402234 1.000000
vt 0.214941 1.000000
vt 0.066010 1.000000
vt 0.000000 0.000000
vt 1.000000 0.000000
vt 0.000000 1.000000
vt 1.000000 1.000000
vt 0.066010 0.000000
vt 0.214942 0.000000
vt 0.402234 0.000000
vt 0.636269 0.000000
vt 0.636269 1.000000
vt 0.402234 1.000000
vt 0.214941 1.000000
vt 0.066010 1.000000
vt 0.000000 0.000000
vt 1.000000 0.000000
vt 0.000000 1.000000
vt 1.000000 1.000000
vt 0.066010 0.000000
vt 0.214942 0.000000
vt 0.402234 0.000000
vt 0.636269 0.000000
vt 0.636269 1.000000
vt 0.402234 1.000000
vt 0.214941 1.000000
vt 0.066010 1.000000
vt 0.000000 0.000000
vt 1.000000 0.000000
vt 0.000000 1.000000
vt 1.000000 1.000000
vt 0.066010 0.000000
vt 0.214942 0.000000
vt 0.402234 0.000000
vt 0.636269 0.000000
vt 0.636269 1.000000
vt 0.402234 1.000000
vt 0.214941 1.000000
vt 0.066010 1.000000
vt 0.000000 0.000000
vt 1.000000 0.000000
vt 0.000000 1.000000
vt 1.000000 1.000000
vt 0.066010 0.000000
vt 0.214942 0.000000
vt 0.402234 0.000000
vt 0.636269 0.000000
vt 0.636269 1.000000
vt 0.402234 1.000000
vt 0.214941 1.000000
vt 0.066010 1.000000
vt 0.000000 0.000000
vt 1.000000 0.000000
vt 0.000000 1.000000
vt 1.000000 1.000000
vt 0.066010 0.000000
vt 0.214942 0.000000
vt 0.402234 0.000000
vt 0.636269 0.000000
vt 0.636269 1.000000
vt 0.402234 1.000000
vt 0.214941 1.000000
vt 0.066010 1.000000
vt 0.000000 0.000000
vt 1.000000 0.000000
vt 0.000000 1.000000
vt 1.000000 1.000000
vt 0.066010 0.000000
vt 0.214942 0.000000
vt 0.402234 0.000000
vt 0.636269 0.000000
vt 0.636269 1.000000
vt 0.402234 1.000000
vt 0.214941 1.000000
vt 0.066010 1.000000
vt 0.000000 0.000000
vt 1.000000 0.000000
vt 0.000000 1.000000
vt 1.000000 1.000000
vt 0.066010 0.000000
vt 0.214942 0.000000
vt 0.402234 0.000000
vt 0.636269 0.000000
vt 0.636269 1.000000
vt 0.402234 1.000000
vt 0.214941 1.000000
vt 0.066010 1.000000
vt 0.000000 0.000000
vt 1.000000 0.000000
vt 0.000000 1.000000
vt 1.000000 1.000000
vt 0.066010 0.000000
vt 0.214942 0.000000
vt 0.402234 0.000000
vt 0.636269 0.000000
vt 0.636269 1.000000
vt 0.402234 1.000000
vt 0.214941 1.000000
vt 0.066010 1.000000
vt 0.000000 0.000000
vt 1.000000 0.000000
vt 0.000000 1.000000
vt 1.000000 1.000000
vt 0.066010 0.000000
vt 0.214942 0.000000
vt 0.402234 0.000000
vt 0.636269 0.000000
vt 0.636269 1.000000
vt 0.402234 1.000000
vt 0.214941 1.000000
vt 0.066010 1.000000
vt 0.000000 0.000000
vt 1.000000 0.000000
vt 0.000000 1.000000
vt 1.000000 1.000000
vt 0.066010 0.000000
vt 0.214942 0.000000
vt 0.402234 0.000000
vt 0.636269 0.000000
vt 0.636269 1.000000
vt 0.402234 1.000000
vt 0.214941 1.000000
vt 0.066010 1.000000
s 1
f 1/1/1 5/5/2 12/12/2 3/3/1
f 5/5/2 6/6/3 11/11/3 12/12/2
f 6/6/3 7/7/4 10/10/4 11/11/3
f 7/7/4 8/8/5 9/9/5 10/10/4
f 8/8/5 2/2/6 4/4/6 9/9/5
f 13/13/7 17/17/8 24/24/8 15/15/7
f 17/17/8 18/18/9 23/23/9 24/24/8
f 18/18/9 19/19/10 22/22/10 23/23/9
f 19/19/10 20/20/11 21/21/11 22/22/10
f 20/20/11 14/14/12 16/16/12 21/21/11
f 25/25/13 29/29/14 36/36/14 27/27/13
f 29/29/14 30/30/15 35/35/15 36/36/14
f 30/30/15 31/31/16 34/34/16 35/35/15
f 31/31/16 32/32/17 33/33/17 34/34/16
f 32/32/17 26/26/18 28/28/18 33/33/17
f 37/37/19 41/41/20 48/48/20 39/39/19
f 41/41/20 42/42/21 47/47/21 48/48/20
f 42/42/21 43/43/22 46/46/22 47/47/21
f 43/43/22 44/44/23 45/45/23 46/46/22
f 44/44/23 38/38/24 40/40/24 45/45/23
f 49/49/25 53/53/26 60/60/26 51/51/25
f 53/53/26 54/54/27 59/59/27 60/60/26
f 54/54/27 55/55/28 58/58/28 59/59/27
f 55/55/28 56/56/29 57/57/29 58/58/28
f 56/56/29 50/50/30 52/52/30 57/57/29
f 61/61/31 65/65/32 72/72/32 63/63/31
f 65/65/32 66/66/33 71/71/33 72/72/32
f 66/66/33 67/67/34 70/70/34 71/71/33
f 67/67/34 68/68/35 69/69/35 70/70/34
f 68/68/35 62/62/36 64/64/36 69/69/35
f 73/73/37 77/77/38 84/84/38 75/75/37
f 77/77/38 78/78/39 83/83/39 84/84/38
f 78/78/39 79/79/40 82/82/40 83/83/39
f 79/79/40 80/80/41 81/81/41 82/82/40
f 80/80/41 74/74/42 76/76/42 81/81/41
f 85/85/43 89/89/44 96/96/44 87/87/43
f 89/89/44 90/90/45 95/95/45 96/96/44
f 90/90/45 91/91/46 94/94/46 95/95/45
f 91/91/46 92/92/47 93/93/47 94/94/46
f 92/92/47 86/86/48 88/88/48 93/93/47
f 97/97/49 101/101/50 108/108/50 99/99/49
f 101/101/50 102/102/51 107/107/51 108/108/50
f 102/102/51 103/103/52 106/106/52 107/107/51
f 103/103/52 104/104/53 105/105/53 106/106/52
f 104/104/53 98/98/54 100/100/54 105/105/53
f 109/109/55 113/113/56 120/120/56 111/111/55
f 113/113/56 114/114/57 119/119/57 120/120/56
f 114/114/57 115/115/58 118/118/58 119/119/57
f 115/115/58 116/116/59 117/117/59 118/118/58
f 116/116/59 110/110/60 112/112/60 117/117/59
f 121/121/61 125/125/62 132/132/62 123/123/61
f 125/125/62 126/126/63 131/131/63 132/132/62
f 126/126/63 127/127/64 130/130/64 131/131/63
f 127/127/64 128/128/65 129/129/65 130/130/64
f 128/128/65 122/122/66 124/124/66 129/129/65
f 133/133/67 137/137/68 144/144/68 135/135/67
f 137/137/68 138/138/69 143/143/69 144/144/68
f 138/138/69 139/139/70 142/142/70 143/143/69
f 139/139/70 140/140/71 141/141/71 142/142/70
f 140/140/71 134/134/72 136/136/72 141/141/71
f 145/145/73 149/149/74 156/156/74 147/147/73
f 149/149/74 150/150/75 155/155/75 156/156/74
f 150/150/75 151/151/76 154/154/76 155/155/75
f 151/151/76 152/152/77 153/153/77 154/154/76
f 152/152/77 146/146/78 148/148/78 153/153/77
f 157/157/79 161/161/80 168/168/80 159/159/79
f 161/161/80 162/162/81 167/167/81 168/168/80
f 162/162/81 163/163/82 166/166/82 167/167/81
f 163/163/82 164/164/83 165/165/83 166/166/82
f 164/164/83 158/158/84 160/160/84 165/165/83
f 169/169/85 173/173/86 180/180/86 171/171/85
f 173/173/86 174/174/87 179/179/87 180/180/86
f 174/174/87 175/175/88 178/178/88 179/179/87
f 175/175/88 176/176/89 177/177/89 178/178/88
f 176/176/89 170/170/90 172/172/90 177/177/89
f 181/181/91 185/185/92 192/192/92 183/183/91
f 185/185/92 186/186/93 191/191/93 192/192/92
f 186/186/93 187/187/94 190/190/94 191/191/93
f 187/187/94 188/188/95 189/189/95 190/190/94
f 188/188/95 182/182/96 184/184/96 189/189/95
f 193/193/97 197/197/98 204/204/98 195/195/97
f 197/197/98 198/198/99 203/203/99 204/204/98
f 198/198/99 199/199/100 202/202/100 203/203/99
f 199/199/100 200/200/101 201/201/101 202/202/100
f 200/200/101 194/194/102 196/196/102 201/201/101
f 205/205/103 209/209/104 216/216/104 207/207/103
f 209/209/104 210/210/105 215/215/105 216/216/104
f 210/210/105 211/211/106 214/214/106 215/215/105
f 211/211/106 212/212/107 213/213/107 214/214/106
f 212/212/107 206/206/108 208/208/108 213/213/107
f 217/217/109 221/221/110 228/228/110 219/219/109
f 221/221/110 222/222/111 227/227/111 228/228/110
f 222/222/111 223/223/112 226/226/112 227/227/111
f 223/223/112 224/224/113 225/225/113 226/226/112
f 224/224/113 218/218/114 220/220/114 225/225/113
f 229/229/115 233/233/116 240/240/116 231/231/115
f 233/233/116 234/234/117 239/239/117 240/240/116
f 234/234/117 235/235/118 238/238/118 239/239/117
f 235/235/118 236/236/119 237/237/119 238/238/118
f 236/236/119 230/230/120 232/232/120 237/237/119
f 241/241/121 245/245/122 252/252/122 243/243/121
f 245/245/122 246/246/123 251/251/123 252/252/122
f 246/246/123 247/247/124 250/250/124 251/251/123
f 247/247/124 248/248/125 249/249/125 250/250/124
f 248/248/125 242/242/126 244/244/126 249/249/125
f 253/253/127 257/257/128 264/264/128 255/255/127
f 257/257/128 258/258/129 263/263/129 264/264/128
f 258/258/129 259/259/130 262/262/130 263/263/129
f 259/259/130 260/260/131 261/261/131 262/262/130
f 260/260/131 254/254/132 256/256/132 261/261/131
f 265/265/133 269/269/134 276/276/134 267/267/133
f 269/269/134 270/270/135 275/275/135 276/276/134
f 270/270/135 271/271/136 274/274/136 275/275/135
f 271/271/136 272/272/137 273/273/137 274/274/136
f 272/272/137 266/266/138 268/268/138 273/273/137
f 277/277/139 281/281/140 288/288/140 279/279/139
f 281/281/140 282/282/141 287/287/141 288/288/140
f 282/282/141 283/283/142 286/286/142 287/287/141
f 283/283/142 284/284/143 285/285/143 286/286/142
f 284/284/143 278/278/144 280/280/144 285/285/143
