# Blender v2.92.0 OBJ File: ''
# www.blender.org
mtllib ship_prism.mtl
o Plane
v -0.424264 0.000000 0.000000
v 0.000000 -0.424264 -0.000000
v 0.000000 0.000000 -1.000000
v 0.000000 -0.000000 1.000000
v 0.000000 0.424264 0.000000
v 0.424264 0.000000 0.000000
vt 1.000000 1.000000
vt 1.000000 1.000000
vt 1.000000 0.000000
vt 1.000000 0.000000
vt 0.000000 1.000000
vt 0.000000 1.000000
vt 0.000000 0.000000
vt 1.000000 1.000000
vt 0.000000 0.000000
vt 0.000000 0.000000
vt 0.000000 1.000000
vt 1.000000 0.000000
vn -0.6773 -0.6773 -0.2873
vn -0.6773 -0.6773 0.2873
vn 0.6773 0.6773 0.2873
vn -0.6773 0.6773 0.2873
vn 0.6773 -0.6773 0.2873
vn 0.6773 0.6773 -0.2873
vn -0.6773 0.6773 -0.2873
vn 0.6773 -0.6773 -0.2873
usemtl None
s 1
f 1/1/1 3/2/1 2/3/1
f 2/3/2 4/4/2 1/1/2
f 5/5/3 4/6/3 6/7/3
f 1/1/4 4/8/4 5/5/4
f 6/7/5 4/9/5 2/3/5
f 6/7/6 3/10/6 5/5/6
f 5/5/7 3/11/7 1/1/7
f 2/3/8 3/12/8 6/7/8
