# Blender v2.92.0 OBJ File: 'station_model.blend'
# www.blender.org
mtllib station_model.mtl
o Cube
v 1.000000 10.000000 -3.000000
v 1.000000 -10.000000 -3.000000
v 1.000000 10.000000 3.000000
v 1.000000 -10.000000 3.000000
v -1.000000 10.000000 -3.000000
v -1.000000 -10.000000 -3.000000
v -1.000000 10.000000 3.000000
v -1.000000 -10.000000 3.000000
v -2.000000 -9.000000 4.000000
v -2.000000 0.000000 4.000000
v -2.000000 -9.000000 -4.000000
v -2.000000 0.000000 -4.000000
v 2.000000 -9.000000 4.000000
v 2.000000 0.000000 4.000000
v 2.000000 -9.000000 -4.000000
v 2.000000 0.000000 -4.000000
v -1.500000 -16.000000 2.000000
v -1.500000 16.000000 2.000000
v -1.500000 -16.000000 1.000000
v -1.500000 16.000000 1.000000
v 1.500000 -16.000000 2.000000
v 1.500000 16.000000 2.000000
v 1.500000 -16.000000 1.000000
v 1.500000 16.000000 1.000000
v -1.500000 -16.000000 0.500000
v -1.500000 16.000000 0.500000
v -1.500000 -16.000000 -0.500000
v -1.500000 16.000000 -0.500000
v 1.500000 -16.000000 0.500000
v 1.500000 16.000000 0.500000
v 1.500000 -16.000000 -0.500000
v 1.500000 16.000000 -0.500000
v -1.500000 -16.000000 -1.000000
v -1.500000 16.000000 -1.000000
v -1.500000 -16.000000 -2.000000
v -1.500000 16.000000 -2.000000
v 1.500000 -16.000000 -1.000000
v 1.500000 16.000000 -1.000000
v 1.500000 -16.000000 -2.000000
v 1.500000 16.000000 -2.000000
v -4.000000 3.000000 6.000000
v -4.000000 4.000000 6.000000
v -4.000000 3.000000 -6.000000
v -4.000000 4.000000 -6.000000
v 4.000000 3.000000 6.000000
v 4.000000 4.000000 6.000000
v 4.000000 3.000000 -6.000000
v 4.000000 4.000000 -6.000000
v -0.500000 -3.000000 6.000000
v -0.500000 3.000000 6.000000
v -0.500000 -3.000000 3.000000
v -0.500000 3.000000 3.000000
v 0.500000 -3.000000 6.000000
v 0.500000 3.000000 6.000000
v 0.500000 -3.000000 3.000000
v 0.500000 3.000000 3.000000
v 0.500000 -10.000000 4.000000
v 0.500000 -10.000000 3.000000
v -0.500000 -10.000000 4.000000
v -0.500000 -10.000000 3.000000
v 0.500000 -1.000000 6.000000
v 0.500000 -1.000000 4.000000
v 0.500000 0.000000 4.000000
v 0.500000 0.000000 6.000000
v 4.000000 -1.000000 6.000000
v 4.000000 0.000000 6.000000
v 2.000000 0.000000 6.000000
v 2.000000 -1.000000 6.000000
v 2.000000 -1.000000 4.000000
v 2.000000 0.000000 4.000000
v 2.000000 -5.000000 -2.000000
v 2.000000 -4.000000 -2.000000
v 4.000000 -1.000000 4.000000
v 4.000000 0.000000 4.000000
v 4.000000 -5.000000 -2.000000
v 4.000000 -4.000000 -2.000000
v 2.000000 -4.000000 -2.000000
v 2.000000 -5.000000 -2.000000
v 4.000000 -5.000000 -2.000000
v 4.000000 -4.000000 -2.000000
v 2.000000 -4.000000 -6.000000
v 2.000000 -5.000000 -6.000000
v 4.000000 -5.000000 -6.000000
v 4.000000 -4.000000 -6.000000
v 2.000000 -5.000000 -6.000000
v 2.000000 -4.000000 -6.000000
v 2.000000 -5.000000 -11.000000
v 2.000000 -4.000000 -11.000000
v 7.000000 -5.000000 -6.000000
v 7.000000 -4.000000 -6.000000
v 7.000000 -5.000000 -11.000000
v 7.000000 -4.000000 -11.000000
vt 0.625000 0.500000
vt 0.875000 0.500000
vt 0.875000 0.750000
vt 0.625000 0.750000
vt 0.375000 0.750000
vt 0.625000 1.000000
vt 0.375000 1.000000
vt 0.375000 0.000000
vt 0.625000 0.000000
vt 0.625000 0.250000
vt 0.375000 0.250000
vt 0.125000 0.500000
vt 0.375000 0.500000
vt 0.125000 0.750000
vt 0.375000 0.000000
vt 0.625000 0.000000
vt 0.625000 0.250000
vt 0.375000 0.250000
vt 0.625000 0.500000
vt 0.375000 0.500000
vt 0.625000 0.750000
vt 0.375000 0.750000
vt 0.625000 1.000000
vt 0.375000 1.000000
vt 0.125000 0.500000
vt 0.125000 0.750000
vt 0.875000 0.500000
vt 0.875000 0.750000
vt 0.375000 0.000000
vt 0.625000 0.000000
vt 0.625000 0.250000
vt 0.375000 0.250000
vt 0.625000 0.500000
vt 0.375000 0.500000
vt 0.625000 0.750000
vt 0.375000 0.750000
vt 0.625000 1.000000
vt 0.375000 1.000000
vt 0.125000 0.500000
vt 0.125000 0.750000
vt 0.875000 0.500000
vt 0.875000 0.750000
vt 0.375000 0.000000
vt 0.625000 0.000000
vt 0.625000 0.250000
vt 0.375000 0.250000
vt 0.625000 0.500000
vt 0.375000 0.500000
vt 0.625000 0.750000
vt 0.375000 0.750000
vt 0.625000 1.000000
vt 0.375000 1.000000
vt 0.125000 0.500000
vt 0.125000 0.750000
vt 0.875000 0.500000
vt 0.875000 0.750000
vt 0.375000 0.000000
vt 0.625000 0.000000
vt 0.625000 0.250000
vt 0.375000 0.250000
vt 0.625000 0.500000
vt 0.375000 0.500000
vt 0.625000 0.750000
vt 0.375000 0.750000
vt 0.625000 1.000000
vt 0.375000 1.000000
vt 0.125000 0.500000
vt 0.125000 0.750000
vt 0.875000 0.500000
vt 0.875000 0.750000
vt 0.375000 0.000000
vt 0.625000 0.000000
vt 0.625000 0.250000
vt 0.375000 0.250000
vt 0.625000 0.500000
vt 0.375000 0.500000
vt 0.625000 0.750000
vt 0.375000 0.750000
vt 0.625000 1.000000
vt 0.375000 1.000000
vt 0.125000 0.500000
vt 0.125000 0.750000
vt 0.875000 0.500000
vt 0.875000 0.750000
vt 0.375000 0.000000
vt 0.625000 0.000000
vt 0.625000 0.250000
vt 0.375000 0.250000
vt 0.625000 0.500000
vt 0.375000 0.500000
vt 0.625000 0.750000
vt 0.375000 0.750000
vt 0.625000 1.000000
vt 0.375000 1.000000
vt 0.375000 0.500000
vt 0.375000 0.250000
vt 0.875000 0.500000
vt 0.875000 0.750000
vt 0.375000 0.000000
vt 0.125000 0.500000
vt 0.375000 0.750000
vt 0.125000 0.750000
vt 0.375000 1.000000
vt 0.625000 0.000000
vt 0.375000 0.000000
vt 0.375000 0.000000
vt 0.625000 0.000000
vt 0.125000 0.750000
vt 0.375000 0.750000
vt 0.375000 0.750000
vt 0.125000 0.750000
vt 0.625000 0.750000
vt 0.625000 1.000000
vt 0.375000 1.000000
vt 0.625000 0.750000
vt 0.625000 0.000000
vt 0.375000 0.000000
vt 0.875000 0.750000
vt 0.875000 0.750000
vt 0.625000 0.250000
vt 0.375000 0.250000
vt 0.625000 0.250000
vt 0.375000 0.250000
vt 0.375000 0.500000
vt 0.625000 0.500000
vt 0.875000 0.750000
vt 0.875000 0.750000
vt 0.125000 0.500000
vt 0.875000 0.500000
vt 0.125000 0.750000
vt 0.125000 0.750000
vt 0.625000 1.000000
vt 0.375000 1.000000
vt 0.625000 0.500000
vt 0.375000 0.500000
vt 0.375000 0.500000
vt 0.625000 0.500000
vt 0.125000 0.500000
vt 0.875000 0.500000
vt 0.375000 0.250000
vt 0.625000 0.250000
vt 0.125000 0.500000
vt 0.875000 0.500000
vt 0.375000 0.000000
vt 0.625000 0.000000
vt 0.625000 0.250000
vt 0.375000 0.250000
vt 0.625000 0.500000
vt 0.375000 0.500000
vt 0.625000 0.750000
vt 0.375000 0.750000
vt 0.625000 1.000000
vt 0.375000 1.000000
vt 0.125000 0.500000
vt 0.125000 0.750000
vt 0.875000 0.500000
vt 0.875000 0.750000
vn 0.0000 1.0000 0.0000
vn 0.0000 0.0000 1.0000
vn -1.0000 0.0000 0.0000
vn 0.0000 -1.0000 0.0000
vn 1.0000 0.0000 0.0000
vn 0.0000 0.0000 -1.0000
vn 0.0000 -0.2747 0.9615
vn 0.0000 -0.8321 0.5547
vn 0.0000 0.8321 -0.5547
usemtl Material
s off
f 1/1/1 5/2/1 7/3/1 3/4/1
f 4/5/2 3/4/2 7/6/2 8/7/2
f 8/8/3 7/9/3 5/10/3 6/11/3
f 6/12/4 2/13/4 4/5/4 8/14/4
f 2/13/5 1/1/5 3/4/5 4/5/5
f 6/11/6 5/10/6 1/1/6 2/13/6
f 9/15/3 10/16/3 12/17/3 11/18/3
f 11/18/6 12/17/6 16/19/6 15/20/6
f 15/20/5 16/19/5 14/21/5 13/22/5
f 13/22/2 14/21/2 10/23/2 9/24/2
f 11/25/4 15/20/4 13/22/4 9/26/4
f 16/19/1 12/27/1 10/28/1 14/21/1
f 17/29/3 18/30/3 20/31/3 19/32/3
f 19/32/6 20/31/6 24/33/6 23/34/6
f 23/34/5 24/33/5 22/35/5 21/36/5
f 21/36/2 22/35/2 18/37/2 17/38/2
f 19/39/4 23/34/4 21/36/4 17/40/4
f 24/33/1 20/41/1 18/42/1 22/35/1
f 25/43/3 26/44/3 28/45/3 27/46/3
f 27/46/6 28/45/6 32/47/6 31/48/6
f 31/48/5 32/47/5 30/49/5 29/50/5
f 29/50/2 30/49/2 26/51/2 25/52/2
f 27/53/4 31/48/4 29/50/4 25/54/4
f 32/47/1 28/55/1 26/56/1 30/49/1
f 33/57/3 34/58/3 36/59/3 35/60/3
f 35/60/6 36/59/6 40/61/6 39/62/6
f 39/62/5 40/61/5 38/63/5 37/64/5
f 37/64/2 38/63/2 34/65/2 33/66/2
f 35/67/4 39/62/4 37/64/4 33/68/4
f 40/61/1 36/69/1 34/70/1 38/63/1
f 41/71/3 42/72/3 44/73/3 43/74/3
f 43/74/6 44/73/6 48/75/6 47/76/6
f 47/76/5 48/75/5 46/77/5 45/78/5
f 45/78/2 46/77/2 42/79/2 41/80/2
f 43/81/4 47/76/4 45/78/4 41/82/4
f 48/75/1 44/83/1 42/84/1 46/77/1
f 49/85/3 50/86/3 52/87/3 51/88/3
f 51/88/6 52/87/6 56/89/6 55/90/6
f 55/90/5 56/89/5 54/91/5 53/92/5
f 53/92/2 54/91/2 50/93/2 49/94/2
f 51/88/6 55/90/6 58/95/6 60/96/6
f 56/89/1 52/97/1 50/98/1 54/91/1
f 49/85/3 51/88/3 60/96/3 59/99/3
f 60/100/4 58/95/4 57/101/4 59/102/4
f 53/92/7 49/94/7 59/103/7 57/101/7
f 55/90/5 53/92/5 57/101/5 58/95/5
f 63/104/3 62/105/3 61/106/3 64/107/3
f 69/108/4 73/109/4 65/110/4 68/111/4
f 65/110/2 66/112/2 67/113/2 68/114/2
f 73/109/5 74/115/5 66/112/5 65/110/5
f 70/116/6 69/117/6 62/105/6 63/104/6
f 74/115/1 70/118/1 67/119/1 66/112/1
f 69/117/3 70/116/3 72/120/3 71/121/3
f 71/121/2 72/120/2 77/122/2 78/123/2
f 75/124/5 76/125/5 74/115/5 73/109/5
f 67/119/1 70/118/1 63/126/1 64/127/1
f 71/128/8 75/124/8 73/109/8 69/108/8
f 76/125/9 72/129/9 70/118/9 74/115/9
f 69/108/4 68/111/4 61/130/4 62/131/4
f 68/114/2 67/113/2 64/132/2 61/133/2
f 80/134/5 79/135/5 83/136/5 84/137/5
f 76/125/2 75/124/2 79/135/2 80/134/2
f 75/124/2 71/128/2 78/138/2 79/135/2
f 72/129/2 76/125/2 80/134/2 77/139/2
f 82/140/6 81/141/6 84/137/6 83/136/6
f 79/135/4 78/138/4 82/142/4 83/136/4
f 77/139/1 80/134/1 84/137/1 81/143/1
f 78/123/3 77/122/3 81/141/3 82/140/3
f 85/144/3 86/145/3 88/146/3 87/147/3
f 87/147/6 88/146/6 92/148/6 91/149/6
f 91/149/5 92/148/5 90/150/5 89/151/5
f 89/151/2 90/150/2 86/152/2 85/153/2
f 87/154/4 91/149/4 89/151/4 85/155/4
f 92/148/1 88/156/1 86/157/1 90/150/1
