# Blender 4.5.1 LTS
# www.blender.org
o IcosphereLow
v 0.000000 -1.000000 0.000000
v 0.723607 -0.447220 0.525725
v -0.276388 -0.447220 0.850649
v -0.894426 -0.447216 0.000000
v -0.276388 -0.447220 -0.850649
v 0.723607 -0.447220 -0.525725
v 0.276388 0.447220 0.850649
v -0.723607 0.447220 0.525725
v -0.723607 0.447220 -0.525725
v 0.276388 0.447220 -0.850649
v 0.894426 0.447216 0.000000
v 0.000000 1.000000 0.000000
v -0.232822 -0.657519 0.716563
v -0.162456 -0.850654 0.499995
v -0.077607 -0.967950 0.238853
v 0.203181 -0.967950 0.147618
v 0.425323 -0.850654 0.309011
v 0.609547 -0.657519 0.442856
v 0.531941 -0.502302 0.681712
v 0.262869 -0.525738 0.809012
v -0.029639 -0.502302 0.864184
v 0.812729 -0.502301 -0.295238
v 0.850648 -0.525736 0.000000
v 0.812729 -0.502301 0.295238
v 0.203181 -0.967950 -0.147618
v 0.425323 -0.850654 -0.309011
v 0.609547 -0.657519 -0.442856
v -0.753442 -0.657515 0.000000
v -0.525730 -0.850652 0.000000
v -0.251147 -0.967949 0.000000
v -0.483971 -0.502302 0.716565
v -0.688189 -0.525736 0.499997
v -0.831051 -0.502299 0.238853
v -0.232822 -0.657519 -0.716563
v -0.162456 -0.850654 -0.499995
v -0.077607 -0.967950 -0.238853
v -0.831051 -0.502299 -0.238853
v -0.688189 -0.525736 -0.499997
v -0.483971 -0.502302 -0.716565
v -0.029639 -0.502302 -0.864184
v 0.262869 -0.525738 -0.809012
v 0.531941 -0.502302 -0.681712
v 0.956626 0.251149 0.147618
v 0.951058 -0.000000 0.309013
v 0.860698 -0.251151 0.442858
v 0.860698 -0.251151 -0.442858
v 0.951058 0.000000 -0.309013
v 0.956626 0.251149 -0.147618
v 0.155215 0.251152 0.955422
v 0.000000 -0.000000 1.000000
v -0.155215 -0.251152 0.955422
v 0.687159 -0.251152 0.681715
v 0.587786 0.000000 0.809017
v 0.436007 0.251152 0.864188
v -0.860698 0.251151 0.442858
v -0.951058 -0.000000 0.309013
v -0.956626 -0.251149 0.147618
v -0.436007 -0.251152 0.864188
v -0.587786 0.000000 0.809017
v -0.687159 0.251152 0.681715
v -0.687159 0.251152 -0.681715
v -0.587786 -0.000000 -0.809017
v -0.436007 -0.251152 -0.864188
v -0.956626 -0.251149 -0.147618
v -0.951058 0.000000 -0.309013
v -0.860698 0.251151 -0.442858
v 0.436007 0.251152 -0.864188
v 0.587786 -0.000000 -0.809017
v 0.687159 -0.251152 -0.681715
v -0.155215 -0.251152 -0.955422
v 0.000000 0.000000 -1.000000
v 0.155215 0.251152 -0.955422
v 0.831051 0.502299 0.238853
v 0.688189 0.525736 0.499997
v 0.483971 0.502302 0.716565
v 0.029639 0.502302 0.864184
v -0.262869 0.525738 0.809012
v -0.531941 0.502302 0.681712
v -0.812729 0.502301 0.295238
v -0.850648 0.525736 0.000000
v -0.812729 0.502301 -0.295238
v -0.531941 0.502302 -0.681712
v -0.262869 0.525738 -0.809012
v 0.029639 0.502302 -0.864184
v 0.483971 0.502302 -0.716565
v 0.688189 0.525736 -0.499997
v 0.831051 0.502299 -0.238853
v 0.077607 0.967950 0.238853
v 0.162456 0.850654 0.499995
v 0.232822 0.657519 0.716563
v 0.753442 0.657515 0.000000
v 0.525730 0.850652 0.000000
v 0.251147 0.967949 0.000000
v -0.203181 0.967950 0.147618
v -0.425323 0.850654 0.309011
v -0.609547 0.657519 0.442856
v -0.203181 0.967950 -0.147618
v -0.425323 0.850654 -0.309011
v -0.609547 0.657519 -0.442856
v 0.077607 0.967950 -0.238853
v 0.162456 0.850654 -0.499995
v 0.232822 0.657519 -0.716563
v 0.361800 0.894429 -0.262863
v 0.638194 0.723610 -0.262864
v 0.447209 0.723612 -0.525728
v -0.138197 0.894430 -0.425319
v -0.052790 0.723612 -0.688185
v -0.361804 0.723612 -0.587778
v -0.447210 0.894429 0.000000
v -0.670817 0.723611 -0.162457
v -0.670817 0.723611 0.162457
v -0.138197 0.894430 0.425319
v -0.361804 0.723612 0.587778
v -0.052790 0.723612 0.688185
v 0.361800 0.894429 0.262863
v 0.447209 0.723612 0.525728
v 0.638194 0.723610 0.262864
v 0.861804 0.276396 -0.425322
v 0.809019 0.000000 -0.587782
v 0.670821 0.276397 -0.688189
v -0.138199 0.276397 -0.951055
v -0.309016 -0.000000 -0.951057
v -0.447215 0.276397 -0.850649
v -0.947213 0.276396 -0.162458
v -1.000000 0.000001 0.000000
v -0.947213 0.276397 0.162458
v -0.447216 0.276397 0.850648
v -0.309017 -0.000001 0.951056
v -0.138199 0.276397 0.951055
v 0.670820 0.276396 0.688190
v 0.809019 -0.000002 0.587783
v 0.861804 0.276394 0.425323
v 0.309017 -0.000000 -0.951056
v 0.447216 -0.276398 -0.850648
v 0.138199 -0.276398 -0.951055
v -0.809018 -0.000000 -0.587783
v -0.670819 -0.276397 -0.688191
v -0.861803 -0.276396 -0.425324
v -0.809018 0.000000 0.587783
v -0.861803 -0.276396 0.425324
v -0.670819 -0.276397 0.688191
v 0.309017 0.000000 0.951056
v 0.138199 -0.276398 0.951055
v 0.447216 -0.276398 0.850648
v 1.000000 0.000000 0.000000
v 0.947213 -0.276396 0.162458
v 0.947213 -0.276396 -0.162458
v 0.361803 -0.723612 -0.587779
v 0.138197 -0.894429 -0.425321
v 0.052789 -0.723611 -0.688186
v -0.447211 -0.723612 -0.525727
v -0.361801 -0.894429 -0.262863
v -0.638195 -0.723609 -0.262863
v -0.638195 -0.723609 0.262864
v -0.361801 -0.894428 0.262864
v -0.447211 -0.723610 0.525729
v 0.670817 -0.723611 -0.162457
v 0.670818 -0.723610 0.162458
v 0.447211 -0.894428 0.000001
v 0.052790 -0.723612 0.688185
v 0.138199 -0.894429 0.425321
v 0.361805 -0.723611 0.587779
vn -0.0000 -1.0000 -0.0000
vn 0.7236 -0.4472 0.5257
vn -0.2764 -0.4472 0.8506
vn -0.8944 -0.4472 -0.0000
vn -0.2764 -0.4472 -0.8506
vn 0.7236 -0.4472 -0.5257
vn 0.2764 0.4472 0.8506
vn -0.7236 0.4472 0.5257
vn -0.7236 0.4472 -0.5257
vn 0.2764 0.4472 -0.8506
vn 0.8944 0.4472 -0.0000
vn -0.0000 1.0000 -0.0000
vn -0.2308 -0.6650 0.7103
vn -0.1625 -0.8507 0.5000
vn -0.0806 -0.9654 0.2480
vn 0.2110 -0.9654 0.1533
vn 0.4253 -0.8507 0.3090
vn 0.6042 -0.6650 0.4390
vn 0.5237 -0.5038 0.6870
vn 0.2629 -0.5257 0.8090
vn -0.0198 -0.5038 0.8636
vn 0.8152 -0.5038 -0.2857
vn 0.8506 -0.5257 -0.0000
vn 0.8152 -0.5038 0.2857
vn 0.2110 -0.9654 -0.1533
vn 0.4253 -0.8507 -0.3090
vn 0.6042 -0.6650 -0.4390
vn -0.7469 -0.6650 -0.0000
vn -0.5257 -0.8507 -0.0000
vn -0.2608 -0.9654 -0.0000
vn -0.4915 -0.5038 0.7103
vn -0.6882 -0.5257 0.5000
vn -0.8274 -0.5038 0.2480
vn -0.2308 -0.6650 -0.7103
vn -0.1625 -0.8507 -0.5000
vn -0.0806 -0.9654 -0.2480
vn -0.8274 -0.5038 -0.2480
vn -0.6882 -0.5257 -0.5000
vn -0.4915 -0.5038 -0.7103
vn -0.0198 -0.5038 -0.8636
vn 0.2629 -0.5257 -0.8090
vn 0.5237 -0.5038 -0.6870
vn 0.9578 0.2431 0.1533
vn 0.9511 -0.0000 0.3090
vn 0.8650 -0.2431 0.4390
vn 0.8650 -0.2431 -0.4390
vn 0.9511 -0.0000 -0.3090
vn 0.9578 0.2431 -0.1533
vn 0.1502 0.2431 0.9583
vn -0.0000 -0.0000 1.0000
vn -0.1502 -0.2431 0.9583
vn 0.6848 -0.2431 0.6870
vn 0.5878 -0.0000 0.8090
vn 0.4417 0.2431 0.8636
vn -0.8650 0.2431 0.4390
vn -0.9511 -0.0000 0.3090
vn -0.9578 -0.2431 0.1533
vn -0.4417 -0.2431 0.8636
vn -0.5878 -0.0000 0.8090
vn -0.6848 0.2431 0.6870
vn -0.6848 0.2431 -0.6870
vn -0.5878 -0.0000 -0.8090
vn -0.4417 -0.2431 -0.8636
vn -0.9578 -0.2431 -0.1533
vn -0.9511 -0.0000 -0.3090
vn -0.8650 0.2431 -0.4390
vn 0.4417 0.2431 -0.8636
vn 0.5878 -0.0000 -0.8090
vn 0.6848 -0.2431 -0.6870
vn -0.1502 -0.2431 -0.9583
vn -0.0000 -0.0000 -1.0000
vn 0.1502 0.2431 -0.9583
vn 0.8274 0.5038 0.2480
vn 0.6882 0.5257 0.5000
vn 0.4915 0.5038 0.7103
vn 0.0198 0.5038 0.8636
vn -0.2629 0.5257 0.8090
vn -0.5237 0.5038 0.6870
vn -0.8152 0.5038 0.2857
vn -0.8506 0.5257 -0.0000
vn -0.8152 0.5038 -0.2857
vn -0.5237 0.5038 -0.6870
vn -0.2629 0.5257 -0.8090
vn 0.0198 0.5038 -0.8636
vn 0.4915 0.5038 -0.7103
vn 0.6882 0.5257 -0.5000
vn 0.8274 0.5038 -0.2480
vn 0.0806 0.9654 0.2480
vn 0.1625 0.8507 0.5000
vn 0.2308 0.6650 0.7103
vn 0.7469 0.6650 -0.0000
vn 0.5257 0.8507 -0.0000
vn 0.2607 0.9654 -0.0000
vn -0.2110 0.9654 0.1533
vn -0.4253 0.8507 0.3090
vn -0.6042 0.6650 0.4390
vn -0.2110 0.9654 -0.1533
vn -0.4253 0.8507 -0.3090
vn -0.6042 0.6650 -0.4390
vn 0.0806 0.9654 -0.2480
vn 0.1625 0.8507 -0.5000
vn 0.2308 0.6650 -0.7103
vn 0.3682 0.8904 -0.2675
vn 0.6317 0.7275 -0.2675
vn 0.4496 0.7276 -0.5182
vn -0.1406 0.8904 -0.4329
vn -0.0592 0.7276 -0.6835
vn -0.3539 0.7276 -0.5878
vn -0.4551 0.8904 -0.0000
vn -0.6683 0.7276 -0.1549
vn -0.6683 0.7276 0.1549
vn -0.1406 0.8904 0.4329
vn -0.3539 0.7276 0.5878
vn -0.0592 0.7276 0.6835
vn 0.3682 0.8904 0.2675
vn 0.4496 0.7276 0.5182
vn 0.6317 0.7275 0.2675
vn 0.8593 0.2724 -0.4329
vn 0.8090 0.0089 -0.5878
vn 0.6772 0.2724 -0.6835
vn -0.1461 0.2724 -0.9510
vn -0.3090 0.0089 -0.9510
vn -0.4408 0.2724 -0.8553
vn -0.9496 0.2724 -0.1549
vn -1.0000 0.0089 -0.0000
vn -0.9496 0.2724 0.1549
vn -0.4408 0.2724 0.8553
vn -0.3090 0.0089 0.9510
vn -0.1461 0.2724 0.9510
vn 0.6772 0.2724 0.6835
vn 0.8090 0.0089 0.5878
vn 0.8593 0.2724 0.4329
vn 0.3090 -0.0089 -0.9510
vn 0.4408 -0.2724 -0.8553
vn 0.1461 -0.2724 -0.9510
vn -0.8090 -0.0089 -0.5878
vn -0.6772 -0.2724 -0.6835
vn -0.8593 -0.2724 -0.4329
vn -0.8090 -0.0089 0.5878
vn -0.8593 -0.2724 0.4329
vn -0.6772 -0.2724 0.6835
vn 0.3090 -0.0089 0.9510
vn 0.1461 -0.2724 0.9510
vn 0.4408 -0.2724 0.8553
vn 1.0000 -0.0089 -0.0000
vn 0.9496 -0.2724 0.1549
vn 0.9496 -0.2724 -0.1549
vn 0.3539 -0.7276 -0.5878
vn 0.1406 -0.8904 -0.4329
vn 0.0592 -0.7276 -0.6835
vn -0.4496 -0.7276 -0.5182
vn -0.3682 -0.8904 -0.2675
vn -0.6317 -0.7275 -0.2675
vn -0.6317 -0.7275 0.2675
vn -0.3682 -0.8904 0.2675
vn -0.4496 -0.7275 0.5182
vn 0.6683 -0.7275 -0.1549
vn 0.6683 -0.7275 0.1549
vn 0.4551 -0.8904 -0.0000
vn 0.0592 -0.7276 0.6835
vn 0.1406 -0.8904 0.4329
vn 0.3539 -0.7276 0.5878
vt 0.181819 0.000000
vt 0.204546 0.039365
vt 0.159092 0.039365
vt 0.272728 0.157461
vt 0.295455 0.118096
vt 0.318182 0.157461
vt 0.909091 0.000000
vt 0.931818 0.039365
vt 0.886364 0.039365
vt 0.727273 0.000000
vt 0.750000 0.039365
vt 0.704546 0.039365
vt 0.545455 0.000000
vt 0.568182 0.039365
vt 0.522728 0.039365
vt 0.295455 0.196826
vt 0.090910 0.157461
vt 0.136364 0.157461
vt 0.113637 0.196826
vt 0.818182 0.157461
vt 0.863636 0.157461
vt 0.840909 0.196826
vt 0.636364 0.157461
vt 0.681818 0.157461
vt 0.659091 0.196826
vt 0.454546 0.157461
vt 0.500000 0.157461
vt 0.477273 0.196826
vt 0.250001 0.196826
vt 0.068182 0.196826
vt 0.795455 0.196826
vt 0.613637 0.196826
vt 0.431819 0.196826
vt 0.181819 0.314921
vt 0.227273 0.314921
vt 0.204546 0.354286
vt 0.000000 0.314921
vt 0.045455 0.314921
vt 0.022727 0.354286
vt 0.727273 0.314921
vt 0.772727 0.314921
vt 0.750000 0.354286
vt 0.545455 0.314921
vt 0.590909 0.314921
vt 0.568182 0.354286
vt 0.363637 0.314921
vt 0.409091 0.314921
vt 0.386364 0.354286
vt 0.431819 0.433017
vt 0.477273 0.433017
vt 0.454546 0.472382
vt 0.409091 0.393651
vt 0.454546 0.393651
vt 0.431819 0.354286
vt 0.500000 0.393651
vt 0.477273 0.354286
vt 0.522728 0.354286
vt 0.454546 0.314921
vt 0.500000 0.314921
vt 0.613637 0.433017
vt 0.659091 0.433017
vt 0.636364 0.472382
vt 0.590909 0.393651
vt 0.636364 0.393651
vt 0.613637 0.354286
vt 0.681818 0.393651
vt 0.659091 0.354286
vt 0.704546 0.354286
vt 0.636364 0.314921
vt 0.681818 0.314921
vt 0.795455 0.433017
vt 0.840909 0.433017
vt 0.818182 0.472382
vt 0.772727 0.393651
vt 0.818182 0.393651
vt 0.795455 0.354286
vt 0.863636 0.393651
vt 0.840909 0.354286
vt 0.886364 0.354286
vt 0.818182 0.314921
vt 0.863636 0.314921
vt 0.909091 0.314921
vt 0.068182 0.433017
vt 0.113637 0.433017
vt 0.090910 0.472382
vt 0.045455 0.393651
vt 0.090910 0.393651
vt 0.068182 0.354286
vt 0.136365 0.393651
vt 0.113637 0.354286
vt 0.159092 0.354286
vt 0.090909 0.314921
vt 0.136364 0.314921
vt 0.250001 0.433017
vt 0.295455 0.433017
vt 0.272728 0.472382
vt 0.227273 0.393651
vt 0.272728 0.393651
vt 0.250001 0.354286
vt 0.318182 0.393651
vt 0.295455 0.354286
vt 0.340910 0.354286
vt 0.272728 0.314921
vt 0.318182 0.314921
vt 0.386364 0.275556
vt 0.409091 0.236191
vt 0.431819 0.275556
vt 0.454546 0.236191
vt 0.477273 0.275556
vt 0.500000 0.236191
vt 0.522728 0.275556
vt 0.568182 0.275556
vt 0.590909 0.236191
vt 0.613637 0.275556
vt 0.636364 0.236191
vt 0.659091 0.275556
vt 0.681818 0.236191
vt 0.704546 0.275556
vt 0.750000 0.275556
vt 0.772727 0.236191
vt 0.795455 0.275556
vt 0.818182 0.236191
vt 0.840909 0.275556
vt 0.863636 0.236191
vt 0.886364 0.275556
vt 0.022727 0.275556
vt 0.045455 0.236191
vt 0.068182 0.275556
vt 0.090910 0.236191
vt 0.113637 0.275556
vt 0.136364 0.236191
vt 0.159092 0.275556
vt 0.204546 0.275556
vt 0.227273 0.236191
vt 0.250001 0.275556
vt 0.272728 0.236191
vt 0.295455 0.275556
vt 0.318182 0.236191
vt 0.340910 0.275556
vt 0.545455 0.236191
vt 0.522728 0.196826
vt 0.568182 0.196826
vt 0.545455 0.157461
vt 0.590909 0.157461
vt 0.727273 0.236191
vt 0.704546 0.196826
vt 0.750000 0.196826
vt 0.727273 0.157461
vt 0.772727 0.157461
vt 0.931818 0.275556
vt 0.909091 0.236191
vt 0.886364 0.196826
vt 0.954545 0.236191
vt 0.931818 0.196826
vt 0.977273 0.196826
vt 0.909091 0.157461
vt 0.954545 0.157461
vt 1.000000 0.157461
vt 0.181819 0.236191
vt 0.159092 0.196826
vt 0.204546 0.196826
vt 0.181819 0.157461
vt 0.227274 0.157461
vt 0.363637 0.236191
vt 0.340910 0.196826
vt 0.386364 0.196826
vt 0.363637 0.157461
vt 0.409092 0.157461
vt 0.477273 0.118096
vt 0.500000 0.078731
vt 0.522728 0.118096
vt 0.545455 0.078731
vt 0.568182 0.118096
vt 0.590909 0.078731
vt 0.613637 0.118096
vt 0.659091 0.118096
vt 0.681818 0.078731
vt 0.704546 0.118096
vt 0.727273 0.078731
vt 0.750000 0.118096
vt 0.772727 0.078731
vt 0.795455 0.118096
vt 0.840909 0.118096
vt 0.863636 0.078731
vt 0.886364 0.118096
vt 0.909091 0.078731
vt 0.931818 0.118096
vt 0.954545 0.078731
vt 0.977273 0.118096
vt 0.431819 0.118096
vt 0.386364 0.118096
vt 0.340910 0.118096
vt 0.409091 0.078731
vt 0.363637 0.078730
vt 0.386364 0.039365
vt 0.318182 0.078731
vt 0.340910 0.039365
vt 0.363637 0.000000
vt 0.113637 0.118096
vt 0.136365 0.078731
vt 0.159092 0.118096
vt 0.181819 0.078731
vt 0.204546 0.118096
vt 0.227273 0.078731
vt 0.250001 0.118096
s 1
f 1/1/1 16/2/16 15/3/15
f 2/4/2 18/5/18 24/6/24
f 1/7/1 15/8/15 30/9/30
f 1/10/1 30/11/30 36/12/36
f 1/13/1 36/14/36 25/15/25
f 2/4/2 24/6/24 45/16/45
f 3/17/3 21/18/21 51/19/51
f 4/20/4 33/21/33 57/22/57
f 5/23/5 39/24/39 63/25/63
f 6/26/6 42/27/42 69/28/69
f 2/4/2 45/16/45 52/29/52
f 3/17/3 51/19/51 58/30/58
f 4/20/4 57/22/57 64/31/64
f 5/23/5 63/25/63 70/32/70
f 6/26/6 69/28/69 46/33/46
f 7/34/7 75/35/75 90/36/90
f 8/37/8 78/38/78 96/39/96
f 9/40/9 81/41/81 99/42/99
f 10/43/10 84/44/84 102/45/102
f 11/46/11 87/47/87 91/48/91
f 93/49/93 100/50/100 12/51/12
f 92/52/92 103/53/103 93/49/93
f 91/48/91 104/54/104 92/52/92
f 93/49/93 103/53/103 100/50/100
f 103/53/103 101/55/101 100/50/100
f 92/52/92 104/54/104 103/53/103
f 104/54/104 105/56/105 103/53/103
f 103/53/103 105/56/105 101/55/101
f 105/56/105 102/57/102 101/55/101
f 91/48/91 87/47/87 104/54/104
f 87/47/87 86/58/86 104/54/104
f 104/54/104 86/58/86 105/56/105
f 86/58/86 85/59/85 105/56/105
f 105/56/105 85/59/85 102/57/102
f 85/59/85 10/43/10 102/57/102
f 100/60/100 97/61/97 12/62/12
f 101/63/101 106/64/106 100/60/100
f 102/45/102 107/65/107 101/63/101
f 100/60/100 106/64/106 97/61/97
f 106/64/106 98/66/98 97/61/97
f 101/63/101 107/65/107 106/64/106
f 107/65/107 108/67/108 106/64/106
f 106/64/106 108/67/108 98/66/98
f 108/67/108 99/68/99 98/66/98
f 102/45/102 84/44/84 107/65/107
f 84/44/84 83/69/83 107/65/107
f 107/65/107 83/69/83 108/67/108
f 83/69/83 82/70/82 108/67/108
f 108/67/108 82/70/82 99/68/99
f 82/70/82 9/40/9 99/68/99
f 97/71/97 94/72/94 12/73/12
f 98/74/98 109/75/109 97/71/97
f 99/42/99 110/76/110 98/74/98
f 97/71/97 109/75/109 94/72/94
f 109/75/109 95/77/95 94/72/94
f 98/74/98 110/76/110 109/75/109
f 110/76/110 111/78/111 109/75/109
f 109/75/109 111/78/111 95/77/95
f 111/78/111 96/79/96 95/77/95
f 99/42/99 81/41/81 110/76/110
f 81/41/81 80/80/80 110/76/110
f 110/76/110 80/80/80 111/78/111
f 80/80/80 79/81/79 111/78/111
f 111/78/111 79/81/79 96/79/96
f 79/81/79 8/82/8 96/79/96
f 94/83/94 88/84/88 12/85/12
f 95/86/95 112/87/112 94/83/94
f 96/39/96 113/88/113 95/86/95
f 94/83/94 112/87/112 88/84/88
f 112/87/112 89/89/89 88/84/88
f 95/86/95 113/88/113 112/87/112
f 113/88/113 114/90/114 112/87/112
f 112/87/112 114/90/114 89/89/89
f 114/90/114 90/91/90 89/89/89
f 96/39/96 78/38/78 113/88/113
f 78/38/78 77/92/77 113/88/113
f 113/88/113 77/92/77 114/90/114
f 77/92/77 76/93/76 114/90/114
f 114/90/114 76/93/76 90/91/90
f 76/93/76 7/34/7 90/91/90
f 88/94/88 93/95/93 12/96/12
f 89/97/89 115/98/115 88/94/88
f 90/36/90 116/99/116 89/97/89
f 88/94/88 115/98/115 93/95/93
f 115/98/115 92/100/92 93/95/93
f 89/97/89 116/99/116 115/98/115
f 116/99/116 117/101/117 115/98/115
f 115/98/115 117/101/117 92/100/92
f 117/101/117 91/102/91 92/100/92
f 90/36/90 75/35/75 116/99/116
f 75/35/75 74/103/74 116/99/116
f 116/99/116 74/103/74 117/101/117
f 74/103/74 73/104/73 117/101/117
f 117/101/117 73/104/73 91/102/91
f 73/104/73 11/46/11 91/102/91
f 48/105/48 87/47/87 11/46/11
f 47/106/47 118/107/118 48/105/48
f 46/33/46 119/108/119 47/106/47
f 48/105/48 118/107/118 87/47/87
f 118/107/118 86/58/86 87/47/87
f 47/106/47 119/108/119 118/107/118
f 119/108/119 120/109/120 118/107/118
f 118/107/118 120/109/120 86/58/86
f 120/109/120 85/59/85 86/58/86
f 46/33/46 69/28/69 119/108/119
f 69/28/69 68/110/68 119/108/119
f 119/108/119 68/110/68 120/109/120
f 68/110/68 67/111/67 120/109/120
f 120/109/120 67/111/67 85/59/85
f 67/111/67 10/43/10 85/59/85
f 72/112/72 84/44/84 10/43/10
f 71/113/71 121/114/121 72/112/72
f 70/32/70 122/115/122 71/113/71
f 72/112/72 121/114/121 84/44/84
f 121/114/121 83/69/83 84/44/84
f 71/113/71 122/115/122 121/114/121
f 122/115/122 123/116/123 121/114/121
f 121/114/121 123/116/123 83/69/83
f 123/116/123 82/70/82 83/69/83
f 70/32/70 63/25/63 122/115/122
f 63/25/63 62/117/62 122/115/122
f 122/115/122 62/117/62 123/116/123
f 62/117/62 61/118/61 123/116/123
f 123/116/123 61/118/61 82/70/82
f 61/118/61 9/40/9 82/70/82
f 66/119/66 81/41/81 9/40/9
f 65/120/65 124/121/124 66/119/66
f 64/31/64 125/122/125 65/120/65
f 66/119/66 124/121/124 81/41/81
f 124/121/124 80/80/80 81/41/81
f 65/120/65 125/122/125 124/121/124
f 125/122/125 126/123/126 124/121/124
f 124/121/124 126/123/126 80/80/80
f 126/123/126 79/81/79 80/80/80
f 64/31/64 57/22/57 125/122/125
f 57/22/57 56/124/56 125/122/125
f 125/122/125 56/124/56 126/123/126
f 56/124/56 55/125/55 126/123/126
f 126/123/126 55/125/55 79/81/79
f 55/125/55 8/82/8 79/81/79
f 60/126/60 78/38/78 8/37/8
f 59/127/59 127/128/127 60/126/60
f 58/30/58 128/129/128 59/127/59
f 60/126/60 127/128/127 78/38/78
f 127/128/127 77/92/77 78/38/78
f 59/127/59 128/129/128 127/128/127
f 128/129/128 129/130/129 127/128/127
f 127/128/127 129/130/129 77/92/77
f 129/130/129 76/93/76 77/92/77
f 58/30/58 51/19/51 128/129/128
f 51/19/51 50/131/50 128/129/128
f 128/129/128 50/131/50 129/130/129
f 50/131/50 49/132/49 129/130/129
f 129/130/129 49/132/49 76/93/76
f 49/132/49 7/34/7 76/93/76
f 54/133/54 75/35/75 7/34/7
f 53/134/53 130/135/130 54/133/54
f 52/29/52 131/136/131 53/134/53
f 54/133/54 130/135/130 75/35/75
f 130/135/130 74/103/74 75/35/75
f 53/134/53 131/136/131 130/135/130
f 131/136/131 132/137/132 130/135/130
f 130/135/130 132/137/132 74/103/74
f 132/137/132 73/104/73 74/103/74
f 52/29/52 45/16/45 131/136/131
f 45/16/45 44/138/44 131/136/131
f 131/136/131 44/138/44 132/137/132
f 44/138/44 43/139/43 132/137/132
f 132/137/132 43/139/43 73/104/73
f 43/139/43 11/46/11 73/104/73
f 67/111/67 72/112/72 10/43/10
f 68/110/68 133/140/133 67/111/67
f 69/28/69 134/141/134 68/110/68
f 67/111/67 133/140/133 72/112/72
f 133/140/133 71/113/71 72/112/72
f 68/110/68 134/141/134 133/140/133
f 134/141/134 135/142/135 133/140/133
f 133/140/133 135/142/135 71/113/71
f 135/142/135 70/32/70 71/113/71
f 69/28/69 42/27/42 134/141/134
f 42/27/42 41/143/41 134/141/134
f 134/141/134 41/143/41 135/142/135
f 41/143/41 40/144/40 135/142/135
f 135/142/135 40/144/40 70/32/70
f 40/144/40 5/23/5 70/32/70
f 61/118/61 66/119/66 9/40/9
f 62/117/62 136/145/136 61/118/61
f 63/25/63 137/146/137 62/117/62
f 61/118/61 136/145/136 66/119/66
f 136/145/136 65/120/65 66/119/66
f 62/117/62 137/146/137 136/145/136
f 137/146/137 138/147/138 136/145/136
f 136/145/136 138/147/138 65/120/65
f 138/147/138 64/31/64 65/120/65
f 63/25/63 39/24/39 137/146/137
f 39/24/39 38/148/38 137/146/137
f 137/146/137 38/148/38 138/147/138
f 38/148/38 37/149/37 138/147/138
f 138/147/138 37/149/37 64/31/64
f 37/149/37 4/20/4 64/31/64
f 55/125/55 60/150/60 8/82/8
f 56/124/56 139/151/139 55/125/55
f 57/22/57 140/152/140 56/124/56
f 55/125/55 139/151/139 60/150/60
f 139/151/139 59/153/59 60/150/60
f 56/124/56 140/152/140 139/151/139
f 140/152/140 141/154/141 139/151/139
f 139/151/139 141/154/141 59/153/59
f 141/154/141 58/155/58 59/153/59
f 57/22/57 33/21/33 140/152/140
f 33/21/33 32/156/32 140/152/140
f 140/152/140 32/156/32 141/154/141
f 32/156/32 31/157/31 141/154/141
f 141/154/141 31/157/31 58/155/58
f 31/157/31 3/158/3 58/155/58
f 49/132/49 54/133/54 7/34/7
f 50/131/50 142/159/142 49/132/49
f 51/19/51 143/160/143 50/131/50
f 49/132/49 142/159/142 54/133/54
f 142/159/142 53/134/53 54/133/54
f 50/131/50 143/160/143 142/159/142
f 143/160/143 144/161/144 142/159/142
f 142/159/142 144/161/144 53/134/53
f 144/161/144 52/29/52 53/134/53
f 51/19/51 21/18/21 143/160/143
f 21/18/21 20/162/20 143/160/143
f 143/160/143 20/162/20 144/161/144
f 20/162/20 19/163/19 144/161/144
f 144/161/144 19/163/19 52/29/52
f 19/163/19 2/4/2 52/29/52
f 43/139/43 48/105/48 11/46/11
f 44/138/44 145/164/145 43/139/43
f 45/16/45 146/165/146 44/138/44
f 43/139/43 145/164/145 48/105/48
f 145/164/145 47/106/47 48/105/48
f 44/138/44 146/165/146 145/164/145
f 146/165/146 147/166/147 145/164/145
f 145/164/145 147/166/147 47/106/47
f 147/166/147 46/33/46 47/106/47
f 45/16/45 24/6/24 146/165/146
f 24/6/24 23/167/23 146/165/146
f 146/165/146 23/167/23 147/166/147
f 23/167/23 22/168/22 147/166/147
f 147/166/147 22/168/22 46/33/46
f 22/168/22 6/26/6 46/33/46
f 27/169/27 42/27/42 6/26/6
f 26/170/26 148/171/148 27/169/27
f 25/15/25 149/172/149 26/170/26
f 27/169/27 148/171/148 42/27/42
f 148/171/148 41/143/41 42/27/42
f 26/170/26 149/172/149 148/171/148
f 149/172/149 150/173/150 148/171/148
f 148/171/148 150/173/150 41/143/41
f 150/173/150 40/144/40 41/143/41
f 25/15/25 36/14/36 149/172/149
f 36/14/36 35/174/35 149/172/149
f 149/172/149 35/174/35 150/173/150
f 35/174/35 34/175/34 150/173/150
f 150/173/150 34/175/34 40/144/40
f 34/175/34 5/23/5 40/144/40
f 34/176/34 39/24/39 5/23/5
f 35/177/35 151/178/151 34/176/34
f 36/12/36 152/179/152 35/177/35
f 34/176/34 151/178/151 39/24/39
f 151/178/151 38/148/38 39/24/39
f 35/177/35 152/179/152 151/178/151
f 152/179/152 153/180/153 151/178/151
f 151/178/151 153/180/153 38/148/38
f 153/180/153 37/149/37 38/148/38
f 36/12/36 30/11/30 152/179/152
f 30/11/30 29/181/29 152/179/152
f 152/179/152 29/181/29 153/180/153
f 29/181/29 28/182/28 153/180/153
f 153/180/153 28/182/28 37/149/37
f 28/182/28 4/20/4 37/149/37
f 28/183/28 33/21/33 4/20/4
f 29/184/29 154/185/154 28/183/28
f 30/9/30 155/186/155 29/184/29
f 28/183/28 154/185/154 33/21/33
f 154/185/154 32/156/32 33/21/33
f 29/184/29 155/186/155 154/185/154
f 155/186/155 156/187/156 154/185/154
f 154/185/154 156/187/156 32/156/32
f 156/187/156 31/157/31 32/156/32
f 30/9/30 15/8/15 155/186/155
f 15/8/15 14/188/14 155/186/155
f 155/186/155 14/188/14 156/187/156
f 14/188/14 13/189/13 156/187/156
f 156/187/156 13/189/13 31/157/31
f 13/189/13 3/158/3 31/157/31
f 22/168/22 27/190/27 6/26/6
f 23/167/23 157/191/157 22/168/22
f 24/6/24 158/192/158 23/167/23
f 22/168/22 157/191/157 27/190/27
f 157/191/157 26/193/26 27/190/27
f 23/167/23 158/192/158 157/191/157
f 158/192/158 159/194/159 157/191/157
f 157/191/157 159/194/159 26/193/26
f 159/194/159 25/195/25 26/193/26
f 24/6/24 18/5/18 158/192/158
f 18/5/18 17/196/17 158/192/158
f 158/192/158 17/196/17 159/194/159
f 17/196/17 16/197/16 159/194/159
f 159/194/159 16/197/16 25/195/25
f 16/197/16 1/198/1 25/195/25
f 13/199/13 21/18/21 3/17/3
f 14/200/14 160/201/160 13/199/13
f 15/3/15 161/202/161 14/200/14
f 13/199/13 160/201/160 21/18/21
f 160/201/160 20/162/20 21/18/21
f 14/200/14 161/202/161 160/201/160
f 161/202/161 162/203/162 160/201/160
f 160/201/160 162/203/162 20/162/20
f 162/203/162 19/163/19 20/162/20
f 15/3/15 16/2/16 161/202/161
f 16/2/16 17/204/17 161/202/161
f 161/202/161 17/204/17 162/203/162
f 17/204/17 18/205/18 162/203/162
f 162/203/162 18/205/18 19/163/19
f 18/205/18 2/4/2 19/163/19
