# Blender 3.3.1
# www.blender.org
o Cube
v -5.500000 -2.500000 0.000000
v -6.000000 -2.000000 0.000000
v -5.629409 -2.482963 0.000000
v -5.750000 -2.433013 0.000000
v -5.853553 -2.353553 0.000000
v -5.933012 -2.250000 0.000000
v -5.982963 -2.129410 0.000000
v -6.000000 2.000000 0.000000
v -5.500000 2.500000 0.000000
v -5.982963 2.129410 0.000000
v -5.933012 2.250000 0.000000
v -5.853553 2.353553 0.000000
v -5.750000 2.433013 0.000000
v -5.629409 2.482963 0.000000
v 6.000000 -2.000000 -0.000000
v 5.500000 -2.500000 -0.000000
v 5.982963 -2.129410 -0.000000
v 5.933012 -2.250000 -0.000000
v 5.853553 -2.353553 -0.000000
v 5.750000 -2.433013 -0.000000
v 5.629409 -2.482963 -0.000000
v 5.500000 2.500000 -0.000000
v 6.000000 2.000000 -0.000000
v 5.629409 2.482963 -0.000000
v 5.750000 2.433013 -0.000000
v 5.853553 2.353553 -0.000000
v 5.933012 2.250000 -0.000000
v 5.982963 2.129410 -0.000000
v -6.000000 -2.000000 0.200000
v -5.500000 -2.500000 0.200000
v -5.982963 -2.129410 0.200000
v -5.933012 -2.250000 0.200000
v -5.853553 -2.353553 0.200000
v -5.750000 -2.433013 0.200000
v -5.629409 -2.482963 0.200000
v -5.500000 2.500000 0.200000
v -6.000000 2.000000 0.200000
v -5.629409 2.482963 0.200000
v -5.750000 2.433013 0.200000
v -5.853553 2.353553 0.200000
v -5.933012 2.250000 0.200000
v -5.982963 2.129410 0.200000
v 5.500000 -2.500000 0.200000
v 6.000000 -2.000000 0.200000
v 5.629409 -2.482963 0.200000
v 5.750000 -2.433013 0.200000
v 5.853553 -2.353553 0.200000
v 5.933012 -2.250000 0.200000
v 5.982963 -2.129410 0.200000
v 6.000000 2.000000 0.200000
v 5.500000 2.500000 0.200000
v 5.982963 2.129410 0.200000
v 5.933012 2.250000 0.200000
v 5.853553 2.353553 0.200000
v 5.750000 2.433013 0.200000
v 5.629409 2.482963 0.200000
vn -1.0000 -0.0000 -0.0000
vn -0.0000 -0.0000 1.0000
vn -0.0000 1.0000 -0.0000
vn -0.0000 -0.0000 -1.0000
vn 1.0000 -0.0000 -0.0000
vn 0.1305 -0.9914 -0.0000
vn 0.3827 -0.9239 -0.0000
vn 0.6088 -0.7934 -0.0000
vn 0.7934 -0.6088 -0.0000
vn 0.9239 -0.3827 -0.0000
vn 0.9914 -0.1305 -0.0000
vn 0.1305 0.9914 -0.0000
vn 0.3827 0.9239 -0.0000
vn 0.6088 0.7934 -0.0000
vn 0.7934 0.6088 -0.0000
vn 0.9239 0.3827 -0.0000
vn 0.9914 0.1305 -0.0000
vn -0.1305 -0.9914 -0.0000
vn -0.3827 -0.9239 -0.0000
vn -0.6088 -0.7934 -0.0000
vn -0.7934 -0.6088 -0.0000
vn -0.9239 -0.3827 -0.0000
vn -0.9914 -0.1305 -0.0000
vn -0.1305 0.9914 -0.0000
vn -0.3827 0.9239 -0.0000
vn -0.6088 0.7934 -0.0000
vn -0.7934 0.6088 -0.0000
vn -0.9239 0.3827 -0.0000
vn -0.9914 0.1305 -0.0000
vn -0.0000 -1.0000 -0.0000
vt -2.250000 -0.750000
vt 0.450000 -2.250000
vt -2.500000 -0.500000
vt 0.450000 -0.500001
vt -2.314705 -0.741482
vt 0.450000 -2.314705
vt -2.375000 -0.716506
vt 0.450000 -2.375000
vt -2.426777 -0.676777
vt 0.450000 -2.426777
vt 0.450000 -0.676777
vt -2.466506 -0.625000
vt 0.450000 -0.625001
vt -2.491482 -0.564705
vt 0.450000 -0.564705
vt -2.500000 1.500000
vt 0.450000 1.500000
vt -2.250000 1.750000
vt 0.450000 -2.250000
vt -2.491482 1.564705
vt 0.450000 1.564704
vt -2.466506 1.625000
vt 0.450000 1.624999
vt -2.426777 1.676777
vt 0.450000 -2.426777
vt 0.450000 1.676776
vt -2.375000 1.716506
vt 0.450000 -2.375000
vt -2.314705 1.741482
vt 0.450000 -2.314705
vt 3.500000 -0.500000
vt 0.450000 -0.500001
vt 3.250000 -0.750000
vt 0.450000 3.250000
vt 3.491481 -0.564705
vt 0.450000 -0.564705
vt 3.466506 -0.625000
vt 0.450000 -0.625001
vt 3.426776 -0.676777
vt 0.450000 3.426776
vt 0.450000 -0.676777
vt 3.375000 -0.716506
vt 0.450000 3.375000
vt 3.314704 -0.741482
vt 0.450000 3.314704
vt 3.250000 1.750000
vt 0.450000 3.250000
vt 3.500000 1.500000
vt 0.450000 1.500000
vt 3.314704 1.741482
vt 0.450000 3.314704
vt 3.375000 1.716506
vt 0.450000 3.375000
vt 3.426776 1.676777
vt 0.450000 3.426776
vt 0.450000 1.676776
vt 3.466506 1.625000
vt 0.450000 1.624999
vt 3.491481 1.564705
vt 0.450000 1.564704
vt -2.500000 -0.500000
vt 0.550000 -0.500001
vt -2.250000 -0.750000
vt 0.550000 -2.250000
vt -2.491482 -0.564705
vt 0.550000 -0.564705
vt -2.466506 -0.625000
vt 0.550000 -0.625001
vt -2.426777 -0.676777
vt 0.550000 -2.426777
vt 0.550000 -0.676777
vt -2.375000 -0.716506
vt 0.550000 -2.375000
vt -2.314705 -0.741482
vt 0.550000 -2.314705
vt -2.250000 1.750000
vt 0.550000 -2.250000
vt -2.500000 1.500000
vt 0.550000 1.500000
vt -2.314705 1.741482
vt 0.550000 -2.314705
vt -2.375000 1.716506
vt 0.550000 -2.375000
vt -2.426777 1.676777
vt 0.550000 -2.426777
vt 0.550000 1.676776
vt -2.466506 1.625000
vt 0.550000 1.624999
vt -2.491482 1.564705
vt 0.550000 1.564704
vt 3.250000 -0.750000
vt 0.550000 3.250000
vt 3.500000 -0.500000
vt 0.550000 -0.500001
vt 3.314704 -0.741482
vt 0.550000 3.314704
vt 3.375000 -0.716506
vt 0.550000 3.375000
vt 3.426776 -0.676777
vt 0.550000 3.426776
vt 0.550000 -0.676777
vt 3.466506 -0.625000
vt 0.550000 -0.625001
vt 3.491481 -0.564705
vt 0.550000 -0.564705
vt 3.500000 1.500000
vt 0.550000 1.500000
vt 3.250000 1.750000
vt 0.550000 3.250000
vt 3.491481 1.564705
vt 0.550000 1.564704
vt 3.466506 1.625000
vt 0.550000 1.624999
vt 3.426776 1.676777
vt 0.550000 3.426776
vt 0.550000 1.676776
vt 3.375000 1.716506
vt 0.550000 3.375000
vt 3.314704 1.741482
vt 0.550000 3.314704
s 0
f 29/62/1 37/79/1 8/17/1 2/4/1
f 43/91/2 45/95/2 46/97/2 47/99/2 48/102/2 49/104/2 44/93/2 50/106/2 52/110/2 53/112/2 54/114/2 55/117/2 56/119/2 51/108/2 36/76/2 38/80/2 39/82/2 40/84/2 41/87/2 42/89/2 37/78/2 29/61/2 31/65/2 32/67/2 33/69/2 34/72/2 35/74/2 30/63/2
f 51/109/3 22/47/3 9/19/3 36/77/3
f 1/1/4 3/5/4 4/7/4 5/9/4 6/12/4 7/14/4 2/3/4 8/16/4 10/20/4 11/22/4 12/24/4 13/27/4 14/29/4 9/18/4 22/46/4 24/50/4 25/52/4 26/54/4 27/57/4 28/59/4 23/48/4 15/31/4 17/35/4 18/37/4 19/39/4 20/42/4 21/44/4 16/33/4
f 15/32/5 23/49/5 50/107/5 44/94/5
f 43/92/6 16/34/6 21/45/6 45/96/6
f 45/96/7 21/45/7 20/43/7 46/98/7
f 46/98/8 20/43/8 19/40/8 47/100/8
f 47/101/9 19/41/9 18/38/9 48/103/9
f 48/103/10 18/38/10 17/36/10 49/105/10
f 49/105/11 17/36/11 15/32/11 44/94/11
f 22/47/12 51/109/12 56/120/12 24/51/12
f 24/51/13 56/120/13 55/118/13 25/53/13
f 25/53/14 55/118/14 54/115/14 26/55/14
f 26/56/15 54/116/15 53/113/15 27/58/15
f 27/58/16 53/113/16 52/111/16 28/60/16
f 28/60/17 52/111/17 50/107/17 23/49/17
f 1/2/18 30/64/18 35/75/18 3/6/18
f 3/6/19 35/75/19 34/73/19 4/8/19
f 4/8/20 34/73/20 33/70/20 5/10/20
f 5/11/21 33/71/21 32/68/21 6/13/21
f 6/13/22 32/68/22 31/66/22 7/15/22
f 7/15/23 31/66/23 29/62/23 2/4/23
f 36/77/24 9/19/24 14/30/24 38/81/24
f 38/81/25 14/30/25 13/28/25 39/83/25
f 39/83/26 13/28/26 12/25/26 40/85/26
f 40/86/27 12/26/27 11/23/27 41/88/27
f 41/88/28 11/23/28 10/21/28 42/90/28
f 42/90/29 10/21/29 8/17/29 37/79/29
f 16/34/30 43/92/30 30/64/30 1/2/30
